<svg width="179" height="31" viewBox="0 0 179 31" fill="none" xmlns="http://www.w3.org/2000/svg">
<g clip-path="url(#clip0_4_35)">
<path d="M6.46154 11.6831C5.9874 11.6693 5.53731 11.4713 5.2068 11.131C4.87631 10.7908 4.6914 10.3351 4.6914 9.86077C4.6914 9.38642 4.87631 8.93074 5.2068 8.5905C5.53731 8.25025 5.9874 8.05224 6.46154 8.03846H18.06C18.5342 8.05224 18.9843 8.25025 19.3148 8.5905C19.6452 8.93074 19.8302 9.38642 19.8302 9.86077C19.8302 10.3351 19.6452 10.7908 19.3148 11.131C18.9843 11.4713 18.5342 11.6693 18.06 11.6831H6.46154ZM1.82309 14.8508C2.18366 14.8508 2.53614 14.7438 2.83594 14.5435C3.13574 14.3432 3.36942 14.0585 3.5074 13.7253C3.64538 13.3922 3.68148 13.0257 3.61114 12.672C3.5408 12.3184 3.36715 11.9935 3.11218 11.7386C2.85723 11.4836 2.53238 11.31 2.17875 11.2396C1.82511 11.1693 1.45854 11.2054 1.12541 11.3434C0.792289 11.4814 0.507565 11.715 0.307242 12.0148C0.106919 12.3146 0 12.6671 0 13.0277C0.00122205 13.5104 0.193846 13.9729 0.535608 14.3138C0.877368 14.6547 1.34038 14.8462 1.82309 14.8462V14.8508ZM3.48002 21.2923C2.99651 21.2923 2.53277 21.4844 2.19088 21.8263C1.84898 22.1682 1.65692 22.6319 1.65692 23.1154C1.65692 23.5989 1.84898 24.0626 2.19088 24.4045C2.53277 24.7463 2.99651 24.9385 3.48002 24.9385H15.0769C15.5605 24.9385 16.0242 24.7463 16.366 24.4045C16.708 24.0626 16.9 23.5989 16.9 23.1154C16.9 22.6319 16.708 22.1682 16.366 21.8263C16.0242 21.4844 15.5605 21.2923 15.0769 21.2923H3.48002ZM6.13079 14.6662C5.88702 14.6591 5.64431 14.701 5.41703 14.7893C5.18975 14.8777 4.98251 15.0108 4.80758 15.1808C4.63265 15.3507 4.49358 15.554 4.39863 15.7786C4.30366 16.0032 4.25474 16.2446 4.25474 16.4884C4.25474 16.7323 4.30366 16.9737 4.39863 17.1983C4.49358 17.423 4.63265 17.6262 4.80758 17.7961C4.98251 17.9661 5.18975 18.0992 5.41703 18.1876C5.64431 18.276 5.88702 18.3178 6.13079 18.3108H15.4077C15.6515 18.3178 15.8942 18.276 16.1215 18.1876C16.3488 18.0992 16.556 17.9661 16.7309 17.7961C16.9058 17.6262 17.0449 17.423 17.1398 17.1983C17.2348 16.9737 17.2837 16.7323 17.2837 16.4884C17.2837 16.2446 17.2348 16.0032 17.1398 15.7786C17.0449 15.554 16.9058 15.3507 16.7309 15.1808C16.556 15.0108 16.3488 14.8777 16.1215 14.7893C15.8942 14.701 15.6515 14.6591 15.4077 14.6662H6.13079ZM19.7169 18.1261C19.3563 18.1258 19.0035 18.2325 18.7035 18.4328C18.4034 18.633 18.1695 18.9177 18.0314 19.2508C17.8932 19.584 17.8569 19.9507 17.9272 20.3045C17.9975 20.6583 18.1712 20.9833 18.4263 21.2383C18.6814 21.4934 19.0063 21.667 19.3602 21.7373C19.7138 21.8076 20.0806 21.7714 20.4137 21.6332C20.7469 21.495 21.0317 21.2611 21.2318 20.9611C21.432 20.6611 21.5388 20.3084 21.5385 19.9477C21.5391 19.7081 21.4925 19.4707 21.4011 19.2492C21.3098 19.0277 21.1758 18.8263 21.0066 18.6567C20.8374 18.487 20.6363 18.3525 20.4151 18.2606C20.1938 18.1688 19.9566 18.1215 19.7169 18.1215V18.1261Z" fill="#14F195"/>
</g>
<path d="M31.4311 24.4873C29.9673 24.4873 28.8419 24.1827 28.055 23.5735C27.2765 22.9558 26.8111 21.9996 26.6588 20.705C26.6334 20.3919 26.7011 20.155 26.8619 19.9942C27.0311 19.825 27.268 19.7404 27.5727 19.7404C27.8773 19.7404 28.1015 19.8165 28.2454 19.9688C28.3977 20.1212 28.495 20.3496 28.5373 20.6542C28.6388 21.3988 28.9054 21.915 29.3369 22.2027C29.7769 22.4819 30.475 22.6215 31.4311 22.6215H35.0865C36.2204 22.6215 36.9946 22.4142 37.4092 21.9996C37.8323 21.5765 38.0438 20.8108 38.0438 19.7023C38.0438 18.5769 37.8281 17.8027 37.3965 17.3796C36.9734 16.9481 36.2034 16.7323 35.0865 16.7323H31.8373C30.2719 16.7323 29.1127 16.3558 28.3596 15.6027C27.615 14.8496 27.2427 13.6946 27.2427 12.1377C27.2427 10.5808 27.6107 9.43 28.3469 8.68538C29.0915 7.94077 30.2465 7.56846 31.8119 7.56846H35.0104C36.3811 7.56846 37.4346 7.86038 38.1707 8.44423C38.9154 9.01961 39.3638 9.91231 39.5161 11.1223C39.55 11.4354 39.4823 11.6765 39.3131 11.8458C39.1523 12.0065 38.9154 12.0869 38.6023 12.0869C38.3061 12.0869 38.0819 12.0108 37.9296 11.8585C37.7773 11.6977 37.6842 11.4692 37.6504 11.1731C37.5488 10.5215 37.295 10.0688 36.8888 9.815C36.4911 9.56115 35.865 9.43423 35.0104 9.43423H31.8119C30.7627 9.43423 30.0477 9.62884 29.6669 10.0181C29.2946 10.3988 29.1084 11.1054 29.1084 12.1377C29.1084 13.17 29.2988 13.885 29.6796 14.2827C30.0688 14.6719 30.788 14.8665 31.8373 14.8665H35.0865C36.7281 14.8665 37.9423 15.26 38.7292 16.0469C39.5161 16.8338 39.9096 18.0523 39.9096 19.7023C39.9096 21.3438 39.5161 22.5538 38.7292 23.3323C37.9423 24.1023 36.7281 24.4873 35.0865 24.4873H31.4311ZM49.5333 24.5C47.6295 24.5 46.2249 24.0515 45.3195 23.1546C44.4226 22.2492 43.9741 20.8446 43.9741 18.9408V13.1023C43.9741 11.1815 44.4226 9.77692 45.3195 8.88846C46.2249 7.99154 47.6253 7.55154 49.5206 7.56846H52.5795C54.4833 7.56846 55.8837 8.01692 56.7806 8.91384C57.6776 9.81077 58.126 11.2154 58.126 13.1277V18.9408C58.126 20.8446 57.6776 22.2492 56.7806 23.1546C55.8837 24.0515 54.4833 24.5 52.5795 24.5H49.5333ZM49.5333 22.6342H52.5795C53.5018 22.6342 54.2295 22.52 54.7626 22.2915C55.3041 22.0631 55.6891 21.6823 55.9176 21.1492C56.146 20.6077 56.2603 19.8715 56.2603 18.9408V13.1277C56.2603 12.2054 56.146 11.4777 55.9176 10.9446C55.6891 10.4031 55.3041 10.0181 54.7626 9.78961C54.2295 9.55269 53.5018 9.43423 52.5795 9.43423H49.5206C48.5983 9.42577 47.8706 9.53577 47.3376 9.76423C46.8045 9.98423 46.4195 10.365 46.1826 10.9065C45.9541 11.4396 45.8399 12.1715 45.8399 13.1023V18.9408C45.8399 19.8715 45.9541 20.6077 46.1826 21.1492C46.411 21.6823 46.7918 22.0631 47.3249 22.2915C47.8664 22.52 48.6026 22.6342 49.5333 22.6342ZM63.6541 24.5C63.028 24.5 62.7149 24.1869 62.7149 23.5608V8.50769C62.7149 7.88154 63.028 7.56846 63.6541 7.56846C64.2718 7.56846 64.5807 7.88154 64.5807 8.50769V22.6342H71.8407C72.4668 22.6342 72.7799 22.9431 72.7799 23.5608C72.7799 24.1869 72.4668 24.5 71.8407 24.5H63.6541ZM77.0405 24.5C76.4144 24.5 76.1013 24.1869 76.1013 23.5608V8.50769C76.1013 7.88154 76.4144 7.56846 77.0405 7.56846C77.4552 7.56846 77.7978 7.77154 78.0686 8.17769L84.1736 17.405L83.7675 17.4685L89.8979 8.17769C90.1517 7.77154 90.5282 7.56846 91.0275 7.56846C91.5436 7.56846 91.8017 7.88154 91.8017 8.50769V23.5608C91.8017 24.1869 91.4928 24.5 90.8752 24.5C90.249 24.5 89.9359 24.1869 89.9359 23.5608V10.3735L90.5071 10.5638L84.9986 18.7758C84.7278 19.1735 84.3513 19.3723 83.869 19.3723C83.5136 19.3723 83.2005 19.1735 82.9298 18.7758L77.4213 10.5638L77.9671 10.7288V23.5608C77.9671 24.1869 77.6582 24.5 77.0405 24.5ZM97.8391 24.5C97.2129 24.5 96.8998 24.1869 96.8998 23.5608V8.50769C96.8998 7.88154 97.2129 7.56846 97.8391 7.56846C98.2537 7.56846 98.5964 7.77154 98.8671 8.17769L104.972 17.405L104.566 17.4685L110.696 8.17769C110.95 7.77154 111.327 7.56846 111.826 7.56846C112.342 7.56846 112.6 7.88154 112.6 8.50769V23.5608C112.6 24.1869 112.291 24.5 111.674 24.5C111.048 24.5 110.734 24.1869 110.734 23.5608V10.3735L111.306 10.5638L105.797 18.7758C105.526 19.1735 105.15 19.3723 104.668 19.3723C104.312 19.3723 103.999 19.1735 103.728 18.7758L98.2198 10.5638L98.7656 10.7288V23.5608C98.7656 24.1869 98.4568 24.5 97.8391 24.5ZM118.638 24.5C118.011 24.5 117.698 24.1869 117.698 23.5608V8.50769C117.698 7.88154 118.011 7.56846 118.638 7.56846H127.878C128.504 7.56846 128.817 7.88154 128.817 8.50769C128.817 9.12538 128.504 9.43423 127.878 9.43423H119.564V15.0188H124.882C125.508 15.0188 125.821 15.3277 125.821 15.9454C125.821 16.5715 125.508 16.8846 124.882 16.8846H119.564V22.6342H127.878C128.504 22.6342 128.817 22.9431 128.817 23.5608C128.817 24.1869 128.504 24.5 127.878 24.5H118.638ZM143.714 24.5381C143.469 24.6988 143.236 24.7496 143.016 24.6904C142.796 24.6312 142.606 24.4788 142.445 24.2335L138.434 17.6588H134.512V23.5608C134.512 24.1869 134.203 24.5 133.586 24.5C132.96 24.5 132.647 24.1869 132.647 23.5608V8.50769C132.647 7.88154 132.96 7.56846 133.586 7.56846H139.526C141.04 7.56846 142.195 7.97038 142.991 8.77423C143.786 9.56961 144.184 10.7246 144.184 12.2392V13.0008C144.184 14.3208 143.875 15.37 143.257 16.1485C142.648 16.9269 141.76 17.405 140.592 17.5827L144.057 23.2688C144.353 23.7935 144.239 24.2165 143.714 24.5381ZM134.512 15.7931H139.526C140.524 15.7931 141.239 15.5773 141.671 15.1458C142.102 14.7142 142.318 13.9992 142.318 13.0008V12.2392C142.318 11.2408 142.102 10.5258 141.671 10.0942C141.239 9.65423 140.524 9.43423 139.526 9.43423H134.512V15.7931ZM153.278 24.5C151.374 24.5 149.97 24.0515 149.064 23.1546C148.167 22.2492 147.719 20.8446 147.719 18.9408V13.1277C147.719 11.2069 148.167 9.79808 149.064 8.90115C149.961 8.00423 151.357 7.56 153.253 7.56846H156.324C157.898 7.56846 159.091 7.89846 159.903 8.55846C160.716 9.21 161.181 10.2423 161.3 11.6554C161.342 11.9685 161.283 12.2096 161.122 12.3788C160.961 12.5396 160.724 12.62 160.411 12.62C159.844 12.62 159.518 12.3069 159.434 11.6808C159.358 10.8177 159.083 10.2296 158.609 9.91654C158.135 9.595 157.373 9.43423 156.324 9.43423H153.253C152.33 9.43423 151.603 9.54846 151.07 9.77692C150.537 9.99692 150.156 10.3777 149.927 10.9192C149.699 11.4523 149.585 12.1885 149.585 13.1277V18.9408C149.585 19.8715 149.699 20.6077 149.927 21.1492C150.156 21.6823 150.537 22.0631 151.07 22.2915C151.611 22.52 152.347 22.6342 153.278 22.6342H156.324C157.373 22.6342 158.135 22.4777 158.609 22.1646C159.083 21.8431 159.358 21.2508 159.434 20.3877C159.518 19.7615 159.844 19.4485 160.411 19.4485C160.724 19.4485 160.961 19.5331 161.122 19.7023C161.283 19.8631 161.342 20.1 161.3 20.4131C161.181 21.8346 160.716 22.8712 159.903 23.5227C159.091 24.1742 157.898 24.5 156.324 24.5H153.278ZM166.581 24.5C165.955 24.5 165.642 24.1869 165.642 23.5608V8.50769C165.642 7.88154 165.955 7.56846 166.581 7.56846H175.821C176.447 7.56846 176.76 7.88154 176.76 8.50769C176.76 9.12538 176.447 9.43423 175.821 9.43423H167.507V15.0188H172.825C173.452 15.0188 173.765 15.3277 173.765 15.9454C173.765 16.5715 173.452 16.8846 172.825 16.8846H167.507V22.6342H175.821C176.447 22.6342 176.76 22.9431 176.76 23.5608C176.76 24.1869 176.447 24.5 175.821 24.5H166.581Z" fill="black"/>
<defs>
<clipPath id="clip0_4_35">
<rect width="21.5385" height="16.9231" fill="white" transform="translate(0 8.03846)"/>
</clipPath>
</defs>
</svg>
