<svg width="180" height="30" viewBox="0 0 180 30" fill="none" xmlns="http://www.w3.org/2000/svg">
<g clip-path="url(#clip0_4_31)">
<path d="M7.1538 11.1831C6.67966 11.1693 6.22957 10.9713 5.89906 10.631C5.56857 10.2908 5.38366 9.83511 5.38366 9.36077C5.38366 8.88642 5.56857 8.43075 5.89906 8.0905C6.22957 7.75026 6.67966 7.55224 7.1538 7.53846H18.7523C19.2264 7.55224 19.6766 7.75026 20.007 8.0905C20.3375 8.43075 20.5224 8.88642 20.5224 9.36077C20.5224 9.83511 20.3375 10.2908 20.007 10.631C19.6766 10.9713 19.2264 11.1693 18.7523 11.1831H7.1538ZM2.51535 14.3508C2.87592 14.3508 3.2284 14.2438 3.5282 14.0435C3.828 13.8432 4.06168 13.5585 4.19966 13.2253C4.33765 12.8922 4.37374 12.5257 4.3034 12.172C4.23306 11.8184 4.05941 11.4935 3.80445 11.2386C3.54949 10.9836 3.22465 10.81 2.87101 10.7396C2.51737 10.6693 2.1508 10.7054 1.81767 10.8434C1.48455 10.9814 1.19983 11.215 0.999502 11.5148C0.79918 11.8146 0.692261 12.1671 0.692261 12.5277C0.693483 13.0104 0.886107 13.4729 1.22787 13.8138C1.56963 14.1547 2.03264 14.3462 2.51535 14.3462V14.3508ZM4.17228 20.7923C3.68877 20.7923 3.22503 20.9844 2.88314 21.3263C2.54125 21.6682 2.34918 22.1319 2.34918 22.6154C2.34918 23.0989 2.54125 23.5626 2.88314 23.9045C3.22503 24.2463 3.68877 24.4385 4.17228 24.4385H15.7692C16.2527 24.4385 16.7164 24.2463 17.0583 23.9045C17.4003 23.5626 17.5923 23.0989 17.5923 22.6154C17.5923 22.1319 17.4003 21.6682 17.0583 21.3263C16.7164 20.9844 16.2527 20.7923 15.7692 20.7923H4.17228ZM6.82305 14.1662C6.57928 14.1591 6.33657 14.201 6.10929 14.2893C5.88201 14.3777 5.67477 14.5108 5.49985 14.6808C5.32491 14.8507 5.18585 15.054 5.09089 15.2786C4.99592 15.5032 4.947 15.7446 4.947 15.9884C4.947 16.2323 4.99592 16.4737 5.09089 16.6983C5.18585 16.923 5.32491 17.1262 5.49985 17.2961C5.67477 17.4661 5.88201 17.5992 6.10929 17.6876C6.33657 17.776 6.57928 17.8178 6.82305 17.8108H16.1C16.3438 17.8178 16.5864 17.776 16.8138 17.6876C17.041 17.5992 17.2483 17.4661 17.4232 17.2961C17.5981 17.1262 17.7372 16.923 17.8321 16.6983C17.927 16.4737 17.976 16.2323 17.976 15.9884C17.976 15.7446 17.927 15.5032 17.8321 15.2786C17.7372 15.054 17.5981 14.8507 17.4232 14.6808C17.2483 14.5108 17.041 14.3777 16.8138 14.2893C16.5864 14.201 16.3438 14.1591 16.1 14.1662H6.82305ZM20.4092 17.6261C20.0486 17.6258 19.6958 17.7325 19.3958 17.9328C19.0956 18.133 18.8618 18.4177 18.7236 18.7508C18.5855 19.084 18.5492 19.4507 18.6195 19.8045C18.6898 20.1583 18.8635 20.4833 19.1186 20.7383C19.3736 20.9934 19.6986 21.167 20.0524 21.2373C20.4061 21.3076 20.7729 21.2714 21.106 21.1332C21.4392 20.995 21.724 20.7611 21.9241 20.4611C22.1243 20.1611 22.231 19.8084 22.2307 19.4477C22.2313 19.2081 22.1847 18.9707 22.0933 18.7492C22.0021 18.5277 21.8681 18.3263 21.6989 18.1567C21.5296 17.987 21.3286 17.8525 21.1073 17.7606C20.8861 17.6688 20.6489 17.6215 20.4092 17.6215V17.6261Z" fill="#14F195"/>
</g>
<path d="M32.1234 23.9873C30.6595 23.9873 29.5342 23.6827 28.7472 23.0735C27.9688 22.4558 27.5034 21.4996 27.3511 20.205C27.3257 19.8919 27.3934 19.655 27.5542 19.4942C27.7234 19.325 27.9603 19.2404 28.2649 19.2404C28.5695 19.2404 28.7938 19.3165 28.9376 19.4688C29.0899 19.6212 29.1872 19.8496 29.2295 20.1542C29.3311 20.8988 29.5976 21.415 30.0292 21.7027C30.4692 21.9819 31.1672 22.1215 32.1234 22.1215H35.7788C36.9126 22.1215 37.6868 21.9142 38.1015 21.4996C38.5245 21.0765 38.7361 20.3108 38.7361 19.2023C38.7361 18.0769 38.5203 17.3027 38.0888 16.8796C37.6657 16.4481 36.8957 16.2323 35.7788 16.2323H32.5295C30.9642 16.2323 29.8049 15.8558 29.0518 15.1027C28.3072 14.3496 27.9349 13.1946 27.9349 11.6377C27.9349 10.0808 28.303 8.93 29.0392 8.18538C29.7838 7.44077 30.9388 7.06846 32.5042 7.06846H35.7026C37.0734 7.06846 38.1268 7.36038 38.863 7.94423C39.6076 8.51961 40.0561 9.41231 40.2084 10.6223C40.2422 10.9354 40.1745 11.1765 40.0053 11.3458C39.8445 11.5065 39.6076 11.5869 39.2945 11.5869C38.9984 11.5869 38.7742 11.5108 38.6218 11.3585C38.4695 11.1977 38.3765 10.9692 38.3426 10.6731C38.2411 10.0215 37.9872 9.56884 37.5811 9.315C37.1834 9.06115 36.5572 8.93423 35.7026 8.93423H32.5042C31.4549 8.93423 30.7399 9.12884 30.3592 9.51808C29.9868 9.89884 29.8007 10.6054 29.8007 11.6377C29.8007 12.67 29.9911 13.385 30.3718 13.7827C30.7611 14.1719 31.4803 14.3665 32.5295 14.3665H35.7788C37.4203 14.3665 38.6345 14.76 39.4215 15.5469C40.2084 16.3338 40.6018 17.5523 40.6018 19.2023C40.6018 20.8438 40.2084 22.0538 39.4215 22.8323C38.6345 23.6023 37.4203 23.9873 35.7788 23.9873H32.1234ZM50.2256 24C48.3217 24 46.9171 23.5515 46.0117 22.6546C45.1148 21.7492 44.6664 20.3446 44.6664 18.4408V12.6023C44.6664 10.6815 45.1148 9.27692 46.0117 8.38846C46.9171 7.49154 48.3175 7.05154 50.2129 7.06846H53.2717C55.1756 7.06846 56.576 7.51692 57.4729 8.41384C58.3698 9.31077 58.8183 10.7154 58.8183 12.6277V18.4408C58.8183 20.3446 58.3698 21.7492 57.4729 22.6546C56.576 23.5515 55.1756 24 53.2717 24H50.2256ZM50.2256 22.1342H53.2717C54.1941 22.1342 54.9217 22.02 55.4548 21.7915C55.9964 21.5631 56.3814 21.1823 56.6098 20.6492C56.8383 20.1077 56.9525 19.3715 56.9525 18.4408V12.6277C56.9525 11.7054 56.8383 10.9777 56.6098 10.4446C56.3814 9.90308 55.9964 9.51808 55.4548 9.28961C54.9217 9.05269 54.1941 8.93423 53.2717 8.93423H50.2129C49.2906 8.92577 48.5629 9.03577 48.0298 9.26423C47.4967 9.48423 47.1117 9.865 46.8748 10.4065C46.6464 10.9396 46.5321 11.6715 46.5321 12.6023V18.4408C46.5321 19.3715 46.6464 20.1077 46.8748 20.6492C47.1033 21.1823 47.4841 21.5631 48.0171 21.7915C48.5587 22.02 49.2948 22.1342 50.2256 22.1342ZM64.3464 24C63.7202 24 63.4071 23.6869 63.4071 23.0608V8.00769C63.4071 7.38154 63.7202 7.06846 64.3464 7.06846C64.9641 7.06846 65.2729 7.38154 65.2729 8.00769V22.1342H72.5329C73.1591 22.1342 73.4721 22.4431 73.4721 23.0608C73.4721 23.6869 73.1591 24 72.5329 24H64.3464ZM77.7328 24C77.1066 24 76.7936 23.6869 76.7936 23.0608V8.00769C76.7936 7.38154 77.1066 7.06846 77.7328 7.06846C78.1474 7.06846 78.4901 7.27154 78.7609 7.67769L84.8659 16.905L84.4597 16.9685L90.5901 7.67769C90.844 7.27154 91.2205 7.06846 91.7197 7.06846C92.2359 7.06846 92.494 7.38154 92.494 8.00769V23.0608C92.494 23.6869 92.1851 24 91.5674 24C90.9413 24 90.6282 23.6869 90.6282 23.0608V9.87346L91.1993 10.0638L85.6909 18.2758C85.4201 18.6735 85.0436 18.8723 84.5613 18.8723C84.2059 18.8723 83.8928 18.6735 83.622 18.2758L78.1136 10.0638L78.6593 10.2288V23.0608C78.6593 23.6869 78.3505 24 77.7328 24ZM98.5313 24C97.9052 24 97.5921 23.6869 97.5921 23.0608V8.00769C97.5921 7.38154 97.9052 7.06846 98.5313 7.06846C98.9459 7.06846 99.2886 7.27154 99.5594 7.67769L105.664 16.905L105.258 16.9685L111.389 7.67769C111.642 7.27154 112.019 7.06846 112.518 7.06846C113.034 7.06846 113.292 7.38154 113.292 8.00769V23.0608C113.292 23.6869 112.984 24 112.366 24C111.74 24 111.427 23.6869 111.427 23.0608V9.87346L111.998 10.0638L106.489 18.2758C106.219 18.6735 105.842 18.8723 105.36 18.8723C105.004 18.8723 104.691 18.6735 104.421 18.2758L98.9121 10.0638L99.4579 10.2288V23.0608C99.4579 23.6869 99.149 24 98.5313 24ZM119.33 24C118.704 24 118.391 23.6869 118.391 23.0608V8.00769C118.391 7.38154 118.704 7.06846 119.33 7.06846H128.57C129.196 7.06846 129.509 7.38154 129.509 8.00769C129.509 8.62538 129.196 8.93423 128.57 8.93423H120.256V14.5188H125.574C126.201 14.5188 126.514 14.8277 126.514 15.4454C126.514 16.0715 126.201 16.3846 125.574 16.3846H120.256V22.1342H128.57C129.196 22.1342 129.509 22.4431 129.509 23.0608C129.509 23.6869 129.196 24 128.57 24H119.33ZM144.406 24.0381C144.161 24.1988 143.928 24.2496 143.708 24.1904C143.488 24.1312 143.298 23.9788 143.137 23.7335L139.126 17.1588H135.205V23.0608C135.205 23.6869 134.896 24 134.278 24C133.652 24 133.339 23.6869 133.339 23.0608V8.00769C133.339 7.38154 133.652 7.06846 134.278 7.06846H140.218C141.733 7.06846 142.888 7.47038 143.683 8.27423C144.478 9.06961 144.876 10.2246 144.876 11.7392V12.5008C144.876 13.8208 144.567 14.87 143.95 15.6485C143.34 16.4269 142.452 16.905 141.284 17.0827L144.749 22.7688C145.045 23.2935 144.931 23.7165 144.406 24.0381ZM135.205 15.2931H140.218C141.216 15.2931 141.931 15.0773 142.363 14.6458C142.795 14.2142 143.01 13.4992 143.01 12.5008V11.7392C143.01 10.7408 142.795 10.0258 142.363 9.59423C141.931 9.15423 141.216 8.93423 140.218 8.93423H135.205V15.2931ZM153.97 24C152.066 24 150.662 23.5515 149.756 22.6546C148.86 21.7492 148.411 20.3446 148.411 18.4408V12.6277C148.411 10.7069 148.86 9.29808 149.756 8.40115C150.653 7.50423 152.05 7.06 153.945 7.06846H157.016C158.59 7.06846 159.783 7.39846 160.596 8.05846C161.408 8.71 161.873 9.74231 161.992 11.1554C162.034 11.4685 161.975 11.7096 161.814 11.8788C161.653 12.0396 161.416 12.12 161.103 12.12C160.536 12.12 160.211 11.8069 160.126 11.1808C160.05 10.3177 159.775 9.72961 159.301 9.41654C158.827 9.095 158.066 8.93423 157.016 8.93423H153.945C153.023 8.93423 152.295 9.04846 151.762 9.27692C151.229 9.49692 150.848 9.87769 150.62 10.4192C150.391 10.9523 150.277 11.6885 150.277 12.6277V18.4408C150.277 19.3715 150.391 20.1077 150.62 20.6492C150.848 21.1823 151.229 21.5631 151.762 21.7915C152.303 22.02 153.04 22.1342 153.97 22.1342H157.016C158.066 22.1342 158.827 21.9777 159.301 21.6646C159.775 21.3431 160.05 20.7508 160.126 19.8877C160.211 19.2615 160.536 18.9485 161.103 18.9485C161.416 18.9485 161.653 19.0331 161.814 19.2023C161.975 19.3631 162.034 19.6 161.992 19.9131C161.873 21.3346 161.408 22.3712 160.596 23.0227C159.783 23.6742 158.59 24 157.016 24H153.97ZM167.273 24C166.647 24 166.334 23.6869 166.334 23.0608V8.00769C166.334 7.38154 166.647 7.06846 167.273 7.06846H176.513C177.139 7.06846 177.452 7.38154 177.452 8.00769C177.452 8.62538 177.139 8.93423 176.513 8.93423H168.2V14.5188H173.518C174.144 14.5188 174.457 14.8277 174.457 15.4454C174.457 16.0715 174.144 16.3846 173.518 16.3846H168.2V22.1342H176.513C177.139 22.1342 177.452 22.4431 177.452 23.0608C177.452 23.6869 177.139 24 176.513 24H167.273Z" fill="white"/>
<defs>
<clipPath id="clip0_4_31">
<rect width="21.5385" height="16.9231" fill="white" transform="translate(0.692261 7.53846)"/>
</clipPath>
</defs>
</svg>
