<svg width="140" height="110" viewBox="0 0 140 110" fill="none" xmlns="http://www.w3.org/2000/svg">
<path d="M42 23.6899C38.9181 23.6004 35.9925 22.3132 33.8442 20.1016C31.696 17.89 30.4941 14.9282 30.4941 11.845C30.4941 8.76176 31.696 5.79985 33.8442 3.58826C35.9925 1.37666 38.9181 0.0895568 42 0H117.39C120.472 0.0895568 123.398 1.37666 125.546 3.58826C127.694 5.79985 128.896 8.76176 128.896 11.845C128.896 14.9282 127.694 17.89 125.546 20.1016C123.398 22.3132 120.472 23.6004 117.39 23.6899H42ZM11.8501 44.2799C14.1938 44.2799 16.4849 43.5849 18.4336 42.2828C20.3823 40.9807 21.9012 39.13 22.7981 36.9647C23.695 34.7994 23.9296 32.4168 23.4724 30.1182C23.0152 27.8195 21.8865 25.708 20.2292 24.0508C18.572 22.3935 16.4605 21.2649 14.1619 20.8076C11.8632 20.3504 9.48049 20.585 7.31519 21.4819C5.14988 22.3788 3.29917 23.8977 1.99707 25.8464C0.694976 27.7952 0 30.0862 0 32.4299C0.00794335 35.5675 1.26 38.574 3.48145 40.7898C5.70289 43.0056 8.71247 44.25 11.8501 44.25V44.2799ZM22.6201 86.1499C19.4773 86.1499 16.463 87.3984 14.2407 89.6207C12.0184 91.843 10.77 94.8572 10.77 98C10.77 101.143 12.0184 104.157 14.2407 106.379C16.463 108.601 19.4773 109.85 22.6201 109.85H98C101.143 109.85 104.157 108.601 106.379 106.379C108.602 104.157 109.85 101.143 109.85 98C109.85 94.8572 108.602 91.843 106.379 89.6207C104.157 87.3984 101.143 86.1499 98 86.1499H22.6201ZM39.8501 43.08C38.2656 43.0339 36.688 43.3062 35.2107 43.8807C33.7334 44.4553 32.3863 45.3205 31.2493 46.4249C30.1122 47.5294 29.2083 48.8508 28.5911 50.3108C27.9738 51.7708 27.6558 53.3398 27.6558 54.9249C27.6558 56.5101 27.9738 58.0792 28.5911 59.5392C29.2083 60.9992 30.1122 62.3205 31.2493 63.4249C32.3863 64.5294 33.7334 65.3946 35.2107 65.9691C36.688 66.5437 38.2656 66.8159 39.8501 66.7699H100.15C101.735 66.8159 103.312 66.5437 104.79 65.9691C106.267 65.3946 107.614 64.5294 108.751 63.4249C109.888 62.3205 110.792 60.9992 111.409 59.5392C112.026 58.0792 112.344 56.5101 112.344 54.9249C112.344 53.3398 112.026 51.7708 111.409 50.3108C110.792 48.8508 109.888 47.5294 108.751 46.4249C107.614 45.3205 106.267 44.4553 104.79 43.8807C103.312 43.3062 101.735 43.0339 100.15 43.08H39.8501ZM128.16 65.5699C125.816 65.568 123.523 66.2615 121.573 67.5629C119.622 68.8642 118.102 70.7148 117.204 72.8805C116.306 75.0462 116.07 77.4296 116.527 79.7292C116.984 82.0289 118.113 84.1413 119.771 85.7992C121.429 87.457 123.541 88.5858 125.841 89.0427C128.14 89.4996 130.524 89.2641 132.689 88.366C134.855 87.4678 136.706 85.9474 138.007 83.9972C139.308 82.0469 140.002 79.7545 140 77.4099C140.004 75.8525 139.701 74.3097 139.107 72.8698C138.514 71.4298 137.643 70.1211 136.543 69.0184C135.443 67.9158 134.136 67.041 132.698 66.4441C131.26 65.8472 129.718 65.5399 128.16 65.5399V65.5699Z" fill="#14F195"/>
</svg>
