<svg width="149" height="29" viewBox="0 0 149 29" fill="none" xmlns="http://www.w3.org/2000/svg">
<path d="M28.9653 23.588C28.7292 23.2122 28.4205 22.8871 28.0573 22.632C27.6942 22.3768 27.2837 22.1966 26.8501 22.1018C25.1911 21.716 23.7522 20.6891 22.848 19.2457C21.9437 17.8022 21.6476 16.0594 22.0243 14.3983C22.1691 13.7563 22.121 13.0858 21.886 12.471C21.651 11.8562 21.2396 11.3245 20.7034 10.9428C20.1672 10.5611 19.5302 10.3463 18.8724 10.3254C18.2145 10.3046 17.5652 10.4785 17.0059 10.8254C16.4466 11.1724 16.0023 11.6769 15.7288 12.2755C15.4553 12.8742 15.3647 13.5403 15.4686 14.1902C15.5724 14.8402 15.866 15.445 16.3124 15.9286C16.7588 16.4122 17.3381 16.7532 17.9777 16.9086C18.8051 17.0953 19.5875 17.4433 20.2801 17.933C20.9727 18.4225 21.5618 19.044 22.0138 19.7617C22.4657 20.4795 22.7715 21.2793 22.9138 22.1155C23.056 22.9516 23.0318 23.8077 22.8425 24.6345C22.7305 25.1675 22.7504 25.7198 22.9008 26.2432C23.0511 26.7667 23.3271 27.2455 23.7049 27.6379C24.0826 28.0302 24.5506 28.3242 25.068 28.4943C25.5854 28.6644 26.1365 28.7053 26.6734 28.6135C27.2102 28.5218 27.7165 28.3001 28.1481 27.9679C28.5796 27.6356 28.9234 27.2029 29.1494 26.7074C29.3753 26.2118 29.4767 25.6685 29.4447 25.1248C29.4126 24.5811 29.248 24.0535 28.9653 23.588Z" fill="#F97316"/>
<path d="M8.43029 19.881C9.01453 20.1998 9.68066 20.3369 10.3433 20.2744C11.0059 20.212 11.6348 19.9531 12.1492 19.5308C12.6636 19.1084 13.0401 18.5421 13.2304 17.9043C13.4207 17.2665 13.4161 16.5865 13.2172 15.9513C12.965 15.1414 12.8752 14.2898 12.9529 13.4451C13.0305 12.6005 13.2741 11.7795 13.6697 11.0292C14.0653 10.2789 14.6051 9.614 15.2581 9.07269C15.9112 8.53139 16.6646 8.12436 17.4753 7.87483C18.104 7.6779 18.6604 7.29938 19.0745 6.78695C19.4886 6.27452 19.7419 5.65105 19.8025 4.99498C19.8631 4.33891 19.7283 3.67957 19.4151 3.09998C19.1018 2.52035 18.6241 2.04633 18.0421 1.73758C17.4601 1.42883 16.7997 1.2991 16.1442 1.36478C15.4886 1.43043 14.8671 1.6885 14.3579 2.10658C13.8486 2.52461 13.4745 3.08395 13.2824 3.71417C13.0903 4.34439 13.0889 5.01735 13.2784 5.64835C13.7758 7.27737 13.6076 9.03715 12.8106 10.5425C12.0136 12.0478 10.6528 13.176 9.02586 13.6803C8.38362 13.8666 7.81205 14.2413 7.38518 14.756C6.95831 15.2708 6.69578 15.9018 6.63161 16.5674C6.56748 17.2331 6.70461 17.9026 7.02531 18.4894C7.346 19.0763 7.83544 19.5533 8.43029 19.8587V19.881Z" fill="#F97316"/>
<path d="M17.0253 19.3356C16.5813 19.3511 16.1449 19.4552 15.7415 19.6416C15.3382 19.8279 14.9761 20.0929 14.6764 20.421C13.5138 21.6644 11.9062 22.397 10.205 22.4586C8.50382 22.5201 6.84743 21.9056 5.59804 20.7494C5.27522 20.4465 4.89542 20.2108 4.4807 20.056C4.06602 19.9011 3.62468 19.8304 3.18235 19.8477C2.63789 19.8733 2.10796 20.0319 1.63888 20.3095C1.16977 20.5871 0.775783 20.9753 0.491246 21.4401C0.206667 21.905 0.0402474 22.4325 0.00642357 22.9765C-0.0273594 23.5205 0.0724765 24.0645 0.297301 24.5611C0.522125 25.0576 0.865026 25.4916 1.29615 25.8252C1.72727 26.1587 2.23344 26.3816 2.77053 26.4745C3.30762 26.5674 3.85932 26.5274 4.37739 26.358C4.89551 26.1887 5.36425 25.8951 5.74274 25.5029C6.31852 24.8795 7.0116 24.3758 7.78231 24.0207C8.55306 23.6656 9.38627 23.466 10.2342 23.4335C11.0822 23.4009 11.9283 23.5359 12.724 23.8309C13.5197 24.1258 14.2494 24.5748 14.8713 25.1522C15.2761 25.518 15.7645 25.7791 16.2935 25.9125C16.8226 26.0459 17.3763 26.0477 17.9063 25.9176C18.4362 25.7876 18.9261 25.5297 19.3333 25.1664C19.7405 24.8032 20.0525 24.3457 20.242 23.834C20.4315 23.3223 20.4928 22.772 20.4204 22.2311C20.348 21.6903 20.1442 21.1755 19.8268 20.7316C19.5094 20.2878 19.0882 19.9285 18.5998 19.6851C18.1114 19.4417 17.5708 19.3217 17.0253 19.3356Z" fill="#F97316"/>
<path d="M52.1239 23.8045C53.9172 23.8045 55.035 23.1535 55.4772 21.8515C55.6246 21.3602 55.7351 20.7337 55.8088 19.9722L54.8508 19.9353C54.7034 21.6304 54.2735 22.4902 53.561 22.5148C53.0206 22.4656 52.7504 21.8515 52.7504 20.6723V12.9709C52.7504 9.90011 51.3255 8.00853 48.4759 7.29611C47.7389 7.12415 46.9405 7.03817 46.0807 7.03817C42.7397 7.03817 40.6393 7.76286 39.7795 9.21226C39.5584 9.58075 39.4479 9.97381 39.4479 10.3914C39.4479 11.3495 39.9023 11.9514 40.8113 12.197C41.0324 12.2707 41.2657 12.3076 41.5114 12.3076C42.5677 12.3076 43.2802 11.7917 43.6486 10.7599C43.6978 10.6125 43.7715 10.3669 43.8697 10.0229C44.14 9.0403 44.4839 8.42615 44.9015 8.18049C45.1717 8.05766 45.4788 7.99624 45.8227 7.99624C46.9773 7.99624 47.6775 8.69637 47.9231 10.0966C48.0214 10.6125 48.0705 11.2267 48.0705 11.9391V14.3343C41.7571 14.4571 38.588 16.1276 38.5635 19.3457C38.5635 21.5321 39.5216 22.9324 41.4377 23.5465C42.0027 23.7185 42.6292 23.8045 43.317 23.8045C45.4051 23.8045 46.9405 23.0184 47.9231 21.4461C48.1197 21.1268 48.2793 20.7951 48.4022 20.4512C48.9181 22.5639 50.1586 23.6817 52.1239 23.8045ZM45.2332 22.22C44.0049 22.1708 43.3784 21.0777 43.3539 18.9404C43.3539 17.319 44.0171 16.2627 45.3437 15.7714C46.0561 15.5503 46.9651 15.4152 48.0705 15.3661V18.9404C47.6038 20.66 46.8545 21.7164 45.8227 22.1094C45.6016 22.1831 45.4051 22.22 45.2332 22.22Z" fill="#18181B"/>
<path d="M66.274 22.4779H63.5471V14.5185C63.7191 11.9391 64.3455 10.3669 65.4264 9.80185C65.5984 9.72815 65.7581 9.6913 65.9055 9.6913C66.1757 9.6913 66.4705 9.97381 66.7898 10.5388C67.232 11.3249 67.7111 11.8163 68.227 12.0128C68.4726 12.0865 68.7428 12.1233 69.0376 12.1233C70.0203 12.1233 70.7204 11.6566 71.138 10.7231C71.2854 10.4037 71.3591 10.0721 71.3591 9.72815C71.3591 8.49985 70.7573 7.72602 69.5535 7.40666C69.2587 7.33296 68.9517 7.29611 68.6323 7.29611C67.1092 7.29611 65.7704 7.89798 64.6157 9.10171C64.0999 9.6913 63.7068 10.33 63.4366 11.0179L63.1786 7.5909H56.7301V8.54898H58.8673V20.5618C58.8673 21.6427 58.4374 22.2568 57.5776 22.4042C57.3319 22.4533 57.0494 22.4779 56.7301 22.4779V23.436H67.1583C67.1583 22.871 66.9987 22.5639 66.6793 22.5148C66.5565 22.4902 66.4214 22.4779 66.274 22.4779Z" fill="#18181B"/>
<path d="M77.6972 15.4397C77.6972 12.0005 78.1148 9.80185 78.95 8.84377C79.4659 8.27875 80.1906 7.99624 81.1241 7.99624C82.6963 7.99624 83.7036 8.79464 84.1457 10.3914C84.4405 11.4232 84.5879 13.0568 84.5879 15.2924C84.5879 18.879 84.1212 21.1391 83.1877 22.0726C82.6472 22.5885 81.9471 22.8464 81.0873 22.8464C79.5642 22.8464 78.5815 22.0603 78.1393 20.4881C77.8446 19.4317 77.6972 17.749 77.6972 15.4397ZM81.3084 7.03817C78.2867 7.03817 75.9653 8.06994 74.3439 10.1335C73.2139 11.6074 72.6488 13.3271 72.6488 15.2924C72.6488 18.0683 73.6069 20.267 75.5231 21.8883C77.0462 23.1658 78.864 23.8045 80.9767 23.8045C83.8755 23.8045 86.1479 22.7604 87.7938 20.6723C89.0221 19.1001 89.6362 17.2822 89.6362 15.2187C89.6362 12.4673 88.6659 10.3177 86.7252 8.77007C85.2266 7.61547 83.421 7.03817 81.3084 7.03817Z" fill="#18181B"/>
<path d="M98.9591 22.4779H98.2958L98.3326 12.9709C98.48 11.0301 99.1187 9.765 100.249 9.17541C100.568 9.00345 100.887 8.91747 101.207 8.91747C102.116 8.91747 102.767 9.48249 103.16 10.6125C103.332 11.153 103.418 11.7548 103.418 12.4181V20.5618C103.418 21.569 103.184 22.1708 102.718 22.3674C102.497 22.4411 102.189 22.4779 101.796 22.4779V23.436H109.608C109.608 22.871 109.449 22.5639 109.129 22.5148C108.982 22.4902 108.835 22.4779 108.687 22.4779H108.061V13.0446V12.7866C108.233 10.7476 108.896 9.48249 110.051 8.99117C110.296 8.8929 110.542 8.84377 110.788 8.84377C111.844 8.84377 112.569 9.4702 112.962 10.7231C113.109 11.239 113.183 11.804 113.183 12.4181V20.5618C113.183 21.569 112.949 22.1708 112.483 22.3674C112.262 22.4411 111.954 22.4779 111.561 22.4779V23.436H119.963C119.963 22.871 119.803 22.5639 119.484 22.5148C119.337 22.4902 119.189 22.4779 119.042 22.4779H117.826V12.8603C117.826 10.4528 117.027 8.74551 115.431 7.7383C114.694 7.27154 113.895 7.03817 113.035 7.03817C110.652 7.06273 108.871 8.20505 107.692 10.4651C107.103 8.72094 106.059 7.62775 104.56 7.18556C104.167 7.0873 103.774 7.03817 103.381 7.03817C101.023 7.06273 99.303 8.14364 98.2221 10.2809L98.0378 7.5909H91.4787V8.54898H93.6159V20.5618C93.6159 21.6918 93.0878 22.3182 92.0314 22.4411C91.8595 22.4656 91.6752 22.4779 91.4787 22.4779V23.436H99.8434C99.8434 22.871 99.6838 22.5639 99.3644 22.5148C99.2416 22.4902 99.1064 22.4779 98.9591 22.4779Z" fill="#18181B"/>
<path d="M129.617 22.4779H128.254V7.5909H121.437V8.54898H123.574V20.5618C123.574 21.6427 123.144 22.2568 122.284 22.4042C122.039 22.4533 121.756 22.4779 121.437 22.4779V23.436H130.502C130.502 22.871 130.342 22.5639 130.023 22.5148C129.9 22.4902 129.765 22.4779 129.617 22.4779ZM128.586 2.76368C128.586 1.68277 128.107 0.884377 127.149 0.36849C126.731 0.12283 126.289 0 125.822 0C124.766 0 123.967 0.479038 123.427 1.43711C123.206 1.85474 123.095 2.29692 123.095 2.76368C123.095 3.84458 123.574 4.6307 124.532 5.12202C124.95 5.34311 125.38 5.45366 125.822 5.45366C126.903 5.45366 127.701 4.99919 128.217 4.09024C128.463 3.67262 128.586 3.23043 128.586 2.76368Z" fill="#18181B"/>
<path d="M131.423 23.436H136.987V22.4779H134.408L138.83 16.9506L142.515 22.4779H140.488V23.436H149C149 22.871 148.804 22.5639 148.41 22.5148C148.312 22.4902 148.202 22.4779 148.079 22.4779H147.342L141.962 14.3711L145.61 9.6176C146.101 8.95432 146.728 8.58583 147.489 8.51213C147.858 8.463 148.079 8.3156 148.153 8.06994C148.177 7.92254 148.189 7.76286 148.189 7.5909H142.736V8.54898H145.131L141.335 13.4499L138.093 8.54898H140.119V7.5909H131.57V8.54898H133.266L138.277 16.0662L133.929 21.4093C133.413 22.0234 132.786 22.3919 132.049 22.5148C131.706 22.5393 131.509 22.6867 131.46 22.957C131.435 23.1043 131.423 23.264 131.423 23.436Z" fill="#18181B"/>
</svg>
