<svg width="103" height="31" viewBox="0 0 103 31" fill="none" xmlns="http://www.w3.org/2000/svg">
<path d="M19.0777 7.15356C15.1269 7.15356 7.21325 3.9509 7.21325 0H7.15475C7.15475 3.16212 8.41086 6.19472 10.6468 8.43071C12.8827 10.6667 15.9152 11.9229 19.0774 11.9231C20.9746 11.9231 22.7942 12.6767 24.1359 14.0183C25.4775 15.3599 26.2312 17.1795 26.2312 19.0768C26.2316 20.974 25.4783 22.7939 24.1369 24.1357C22.7956 25.4777 20.9761 26.2317 19.0788 26.2321C17.1814 26.2324 15.3617 25.479 14.0198 24.1377C12.6779 22.7963 11.9239 20.9769 11.9235 19.0796C11.9235 17.5138 11.615 15.9634 11.0158 14.5168C10.4165 13.0703 9.53826 11.7559 8.43106 10.6487C7.32385 9.54162 6.00944 8.66341 4.56282 8.06426C3.11623 7.46512 1.56577 7.15678 0 7.15684V7.21487C3.95016 7.21487 7.15283 15.1252 7.1543 19.0766H7.15356C7.15354 21.4349 7.85277 23.74 9.16285 25.7008C10.4729 27.6615 12.335 29.1898 14.5137 30.0922C16.6923 30.9948 19.0896 31.231 21.4025 30.7709C23.7153 30.311 25.8398 29.1755 27.5074 27.5082C29.1749 25.8407 30.3105 23.7163 30.7708 21.4034C31.231 19.0906 30.9949 16.6933 30.0926 14.5146C29.1904 12.3359 27.6623 10.4737 25.7017 9.16343C23.7409 7.85318 21.4357 7.15374 19.0777 7.15356Z" fill="url(#paint0_linear_307_1023)"/>
<path d="M42.6715 29.297C42.6715 29.667 43.0045 30 43.3745 30H45.2245C45.6685 30 46.2605 29.852 46.2605 29.297V18.271H53.3275V29.297C53.3275 29.667 53.6605 30 54.0305 30H56.1395C56.5095 30 56.8425 29.667 56.8425 29.297V15.903C56.8425 15.533 56.5095 15.2 56.1395 15.2H46.2605V10.612C46.2605 8.05898 47.8145 6.98598 49.3315 6.98598C50.9595 6.98598 52.8465 7.98498 53.1795 8.16998C53.5865 8.39198 53.9195 8.42898 54.1415 7.98498L55.0665 6.31998C55.2515 6.02398 55.1775 5.57998 54.8815 5.39498C54.1045 4.91398 51.8105 3.72998 49.3315 3.72998C45.6685 3.72998 42.6715 6.20898 42.6715 10.612V15.2H40.9325C40.5255 15.2 40.2295 15.496 40.2295 15.903V17.568C40.2295 17.938 40.5255 18.271 40.9325 18.271H42.6715V29.297Z" fill="#18181B"/>
<path d="M61.6505 29.297C61.6505 29.667 61.9835 30 62.3535 30H64.1295C64.7215 30 65.1285 29.926 65.1285 29.297V19.899C65.2765 19.64 66.3125 18.086 68.4585 18.086C68.9395 18.086 69.4945 18.234 69.7165 18.345C70.0495 18.493 70.4195 18.419 70.6045 18.012L71.4925 16.199C71.8995 15.2 70.1975 14.83 68.7915 14.83C66.0905 14.83 64.7215 16.606 64.4625 16.976L64.0555 15.718C63.9815 15.422 63.6855 15.2 63.4265 15.2H62.3535C61.9835 15.2 61.6505 15.533 61.6505 15.903V29.297Z" fill="#18181B"/>
<path d="M72.8988 22.6C72.8988 26.855 75.8588 30.37 80.3358 30.37C82.8148 30.37 84.7388 29.445 85.8118 28.52C86.2558 28.15 86.1448 27.854 85.8858 27.558L84.8498 26.152C84.5538 25.782 84.2948 25.93 83.8508 26.189C83.1108 26.67 81.8898 27.262 80.5578 27.262C78.1528 27.262 76.4138 25.301 76.3028 23.303H86.3668C86.6998 23.303 86.9958 23.044 87.0328 22.674C87.0698 22.415 87.1068 21.934 87.1068 21.675C87.1068 17.716 84.1468 14.83 80.2988 14.83C75.8588 14.83 72.8988 18.419 72.8988 22.6ZM76.4878 20.972C76.7098 19.122 78.2638 17.679 80.2618 17.679C82.0748 17.679 83.5548 19.196 83.6658 20.972H76.4878Z" fill="#18181B"/>
<path d="M90.6651 29.297C90.6651 29.667 90.9981 30 91.3681 30H93.4771C93.8471 30 94.1801 29.667 94.1801 29.297V4.80298C94.1801 4.43298 93.8471 4.09998 93.4771 4.09998H91.3681C90.9981 4.09998 90.6651 4.43298 90.6651 4.80298V29.297Z" fill="#18181B"/>
<path d="M100.678 9.16898C101.899 9.16898 102.861 8.20698 102.861 7.02298C102.861 5.80198 101.899 4.83998 100.678 4.83998C99.4937 4.83998 98.5687 5.80198 98.5687 7.02298C98.5687 8.20698 99.4937 9.16898 100.678 9.16898ZM98.9757 29.297C98.9757 29.667 99.3087 30 99.6787 30H101.788C102.158 30 102.491 29.667 102.491 29.297V15.903C102.491 15.533 102.158 15.2 101.788 15.2H99.6787C99.3087 15.2 98.9757 15.533 98.9757 15.903V29.297Z" fill="#18181B"/>
<defs>
<linearGradient id="paint0_linear_307_1023" x1="15.5" y1="0" x2="15.5" y2="31" gradientUnits="userSpaceOnUse">
<stop stop-color="#E95E51"/>
<stop offset="1" stop-color="#FBA300"/>
</linearGradient>
</defs>
</svg>
