<svg width="177" height="31" viewBox="0 0 177 31" fill="none" xmlns="http://www.w3.org/2000/svg">
<path d="M170.798 24.8617C170.234 24.2322 169.755 23.5298 169.375 22.773C168.774 21.587 167.944 20.534 166.932 19.6762C165.921 18.8184 164.75 18.173 163.488 17.7782C162.384 17.4344 161.228 17.2885 160.074 17.3471C160.914 17.2987 161.741 17.5719 162.39 18.1119C163.038 18.6519 163.46 19.4187 163.571 20.2588C163.875 22.0741 164.673 23.7685 165.878 25.1528C167.082 26.5372 168.645 27.5569 170.392 28.0982C172.389 28.7165 174.53 28.6832 176.507 28.003C174.305 27.6412 172.29 26.533 170.798 24.8617Z" fill="#22D3EE"/>
<path d="M156.637 17.1675C156.894 18.2882 157.346 19.3559 157.973 20.3224C157.515 19.6206 157.339 18.774 157.479 17.9497C157.619 17.1253 158.065 16.383 158.73 15.8691C160.141 14.7106 161.2 13.1861 161.79 11.4653C162.379 9.74449 162.476 7.89502 162.069 6.12284C161.605 4.09551 160.504 2.26714 158.924 0.901611C159.711 2.98795 159.756 5.27827 159.052 7.39361C158.783 8.19221 158.409 8.95203 157.939 9.65338C157.218 10.7551 156.727 11.9893 156.495 13.2828C156.262 14.5763 156.293 15.9028 156.587 17.1841L156.637 17.1675Z" fill="#8B5CF6"/>
<path d="M161.558 21.0693C161.184 21.8233 160.544 22.4061 159.766 22.7007C158.987 22.9954 158.128 22.9801 157.36 22.658C155.668 22.0137 153.832 21.8602 152.059 22.2146C150.286 22.5689 148.645 23.4173 147.319 24.6647C145.807 26.0935 144.781 27.9732 144.389 30.0328C145.795 28.2979 147.743 27.1024 149.909 26.6436C150.722 26.4744 151.554 26.4089 152.383 26.4485C153.685 26.517 154.986 26.32 156.211 25.8691C157.437 25.4181 158.56 24.7224 159.516 23.823C160.353 23.0336 161.048 22.1017 161.569 21.0693H161.558Z" fill="#2DD4BF"/>
<path d="M0.635742 29.9015H5.35174V18.4175C5.35174 17.1455 5.69974 16.1255 6.39574 15.3575C7.09174 14.5895 8.00374 14.2055 9.13174 14.2055C10.2837 14.2055 11.1957 14.5895 11.8677 15.3575C12.5637 16.1015 12.9117 17.1215 12.9117 18.4175V29.9015H17.6277V18.4175C17.6277 17.1455 17.9757 16.1255 18.6717 15.3575C19.3677 14.5895 20.2797 14.2055 21.4077 14.2055C22.5597 14.2055 23.4717 14.5895 24.1437 15.3575C24.8397 16.1015 25.1877 17.1215 25.1877 18.4175V29.9015H29.9037V17.3015C29.9037 15.8375 29.5797 14.5535 28.9317 13.4495C28.3077 12.3215 27.4557 11.4455 26.3757 10.8215C25.2957 10.1975 24.0597 9.88554 22.6677 9.88554C21.3717 9.88554 20.1957 10.1495 19.1397 10.6775C18.1077 11.2055 17.2557 11.9975 16.5837 13.0535C16.0077 12.0935 15.1797 11.3255 14.0997 10.7495C13.0437 10.1735 11.8557 9.88554 10.5357 9.88554C9.31174 9.88554 8.21974 10.1255 7.25974 10.6055C6.29974 11.0855 5.56774 11.8055 5.06374 12.7655V10.3175H0.635742V29.9015Z" fill="#0F172A"/>
<path d="M39.8336 30.3335C42.3776 30.3335 44.4176 29.4935 45.9536 27.8135V29.9015H50.4176V16.8695C50.4176 15.5015 50.0696 14.2895 49.3736 13.2335C48.6776 12.1775 47.7176 11.3615 46.4936 10.7855C45.2936 10.1855 43.8896 9.88554 42.2816 9.88554C40.3136 9.88554 38.5616 10.3535 37.0256 11.2895C35.4896 12.2255 34.4336 13.4615 33.8576 14.9975L37.7096 16.8695C38.0696 15.9815 38.6336 15.2735 39.4016 14.7455C40.1696 14.1935 41.0696 13.9175 42.1016 13.9175C43.1816 13.9175 44.0456 14.2055 44.6936 14.7815C45.3656 15.3335 45.7016 16.0295 45.7016 16.8695V17.5175L39.8696 18.4535C37.5656 18.8375 35.8616 19.5695 34.7576 20.6495C33.6536 21.7295 33.1016 23.0855 33.1016 24.7175C33.1016 26.4455 33.7136 27.8135 34.9376 28.8215C36.1616 29.8295 37.7936 30.3335 39.8336 30.3335ZM37.9976 24.5375C37.9976 23.1695 38.9216 22.3055 40.7696 21.9455L45.7016 21.1175V21.9095C45.7016 23.2535 45.2336 24.3935 44.2976 25.3295C43.3856 26.2655 42.1856 26.7335 40.6976 26.7335C39.9056 26.7335 39.2576 26.5415 38.7536 26.1575C38.2496 25.7495 37.9976 25.2095 37.9976 24.5375Z" fill="#0F172A"/>
<path d="M54.7764 29.9015H59.4924V18.9935C59.4924 17.5055 59.9004 16.3535 60.7164 15.5375C61.5564 14.6975 62.6364 14.2775 63.9564 14.2775H65.6484V10.1015H64.4964C63.2964 10.1015 62.2404 10.3175 61.3284 10.7495C60.4164 11.1815 59.7084 11.9615 59.2044 13.0895V10.3175H54.7764V29.9015Z" fill="#0F172A"/>
<path d="M77.6966 30.1175C78.4886 30.1175 79.2686 30.0575 80.0366 29.9375V25.8695C79.5806 25.9415 79.1606 25.9775 78.7766 25.9775C77.6246 25.9775 76.7846 25.7135 76.2566 25.1855C75.7286 24.6575 75.4646 23.9015 75.4646 22.9175V14.5295H79.9646V10.3175H75.4646V5.85354H70.7486V7.36554C70.7486 8.32554 70.4846 9.05754 69.9566 9.56155C69.4286 10.0655 68.6846 10.3175 67.7246 10.3175H67.3646V14.5295H70.7486V23.1695C70.7486 25.3535 71.3486 27.0575 72.5486 28.2815C73.7726 29.5055 75.4886 30.1175 77.6966 30.1175Z" fill="#0F172A"/>
<path d="M83.6396 8.12154H88.3557V3.08154H83.6396V8.12154ZM83.6396 29.9015H88.3557V10.3175H83.6396V29.9015Z" fill="#0F172A"/>
<path d="M92.71 29.9015H97.426V18.4175C97.426 17.1455 97.786 16.1255 98.506 15.3575C99.25 14.5895 100.21 14.2055 101.386 14.2055C102.562 14.2055 103.51 14.5895 104.23 15.3575C104.974 16.1015 105.346 17.1215 105.346 18.4175V29.9015H110.062V17.3015C110.062 15.8375 109.75 14.5535 109.126 13.4495C108.502 12.3215 107.626 11.4455 106.498 10.8215C105.394 10.1975 104.122 9.88554 102.682 9.88554C101.458 9.88554 100.354 10.1255 99.37 10.6055C98.41 11.0855 97.666 11.7935 97.138 12.7295V10.3175H92.71V29.9015Z" fill="#0F172A"/>
<path d="M123.626 30.3335C125.522 30.3335 127.25 29.9015 128.81 29.0375C130.37 28.1495 131.618 26.9375 132.554 25.4015C133.49 23.8415 133.958 22.0775 133.958 20.1095C133.958 18.1415 133.49 16.3895 132.554 14.8535C131.642 13.3175 130.406 12.1055 128.846 11.2175C127.286 10.3295 125.546 9.88554 123.626 9.88554C121.682 9.88554 119.93 10.3295 118.37 11.2175C116.81 12.1055 115.562 13.3175 114.626 14.8535C113.714 16.3895 113.258 18.1415 113.258 20.1095C113.258 22.0775 113.714 23.8295 114.626 25.3655C115.562 26.9015 116.81 28.1135 118.37 29.0015C119.954 29.8895 121.706 30.3335 123.626 30.3335ZM123.626 26.0135C122.57 26.0135 121.622 25.7615 120.782 25.2575C119.966 24.7535 119.318 24.0575 118.838 23.1695C118.382 22.2575 118.154 21.2375 118.154 20.1095C118.154 18.9815 118.382 17.9735 118.838 17.0855C119.318 16.1975 119.966 15.5015 120.782 14.9975C121.622 14.4695 122.57 14.2055 123.626 14.2055C124.682 14.2055 125.606 14.4695 126.398 14.9975C127.214 15.5015 127.85 16.1975 128.306 17.0855C128.786 17.9735 129.026 18.9815 129.026 20.1095C129.026 21.2375 128.786 22.2575 128.306 23.1695C127.85 24.0575 127.214 24.7535 126.398 25.2575C125.606 25.7615 124.682 26.0135 123.626 26.0135Z" fill="#0F172A"/>
</svg>
