<svg width="128" height="27" viewBox="0 0 128 27" fill="none" xmlns="http://www.w3.org/2000/svg">
<path d="M14.9907 22.9274C14.3911 23.8575 14.0912 24.4609 14.0912 24.7374C14.0912 25.0391 14.2037 25.2402 14.4285 25.3408C14.4285 25.3911 14.2162 25.5419 13.7914 25.7933C13.3917 26.0698 12.8295 26.2081 12.105 26.2081C11.3804 26.2081 11.0182 26.0196 11.0182 25.6425C11.0182 24.9888 12.2424 22.8268 14.6909 19.1564C17.1643 15.4609 18.7883 12.9092 19.5629 11.5014C21.2618 8.43436 22.1113 6.00838 22.1113 4.22346C22.1113 3.51955 21.9739 2.86592 21.699 2.26257C21.2743 1.35754 20.2499 0.905027 18.6259 0.905027C15.6528 0.905027 12.4922 2.27514 9.14432 5.01536C6.5959 7.12709 4.63462 9.31425 3.26047 11.5768C2.01125 13.7137 1.38664 15.6243 1.38664 17.3087C1.38664 19.7221 2.49845 20.9539 4.72207 21.0042C4.82201 21.0042 4.92194 21.0042 5.02188 21.0042C7.97005 21.0042 10.2062 19.9609 11.7302 17.8743C12.3298 17.0447 12.6297 16.3408 12.6297 15.7626C12.6297 15.1844 12.4922 14.8198 12.2174 14.669C12.1924 14.6439 12.1799 14.5936 12.1799 14.5182C12.1799 14.4427 12.2549 14.405 12.4048 14.405C13.0544 14.405 13.3792 14.8324 13.3792 15.6871C13.3792 16.2151 13.1293 16.9316 12.6297 17.8366C12.13 18.7416 11.218 19.5964 9.89386 20.4008C8.59466 21.2053 7.10809 21.6075 5.43413 21.6075C3.76016 21.6075 2.43599 21.1173 1.46159 20.1369C0.487198 19.1564 0 17.8366 0 16.1774C0 12.2556 2.67334 8.13268 8.02002 3.80866C9.36918 2.72765 11.1181 1.82262 13.2668 1.09357C15.4404 0.364525 17.4017 0 19.1506 0C20.9245 0 22.1737 0.339385 22.8983 1.01815C23.6228 1.67179 23.9851 2.58938 23.9851 3.77095C23.9851 6.63687 22.2612 10.6969 18.8133 15.9511C19.5878 14.9707 20.8496 13.7263 22.5985 12.2179C28.8196 6.96369 34.1663 3.50698 38.6385 1.84776C38.8634 1.74721 39.1132 1.69693 39.388 1.69693C40.3375 1.69693 40.9371 2.23743 41.1869 3.31844C41.3118 3.74581 40.7122 4.63827 39.388 5.99581C36.265 9.21369 33.6166 12.7332 31.443 16.5545C29.2693 20.3757 28.1825 23.1159 28.1825 24.7751C28.1825 25.1774 28.2575 25.4539 28.4074 25.6047C28.5573 25.7807 28.7946 25.831 29.1194 25.7556C29.4442 25.7053 30.1188 25.4539 31.1432 25.0014C32.1925 24.5489 32.8796 24.2849 33.2044 24.2095C33.3293 24.2598 33.3918 24.3226 33.3918 24.398C33.3918 24.7751 32.7297 25.3031 31.4055 25.9818C30.1063 26.6606 29.1319 27 28.4823 27C27.8327 27 27.4205 26.8869 27.2456 26.6606C26.7959 26.0321 26.571 25.2402 26.571 24.2849C26.571 22.1229 27.7203 19.0182 30.0189 14.9707C31.4929 12.4316 33.7665 9.01257 36.8396 4.71369C33.5167 5.01536 29.2194 7.65503 23.9476 12.6327C19.7502 16.6299 16.7646 20.0615 14.9907 22.9274Z" fill="#18181B"/>
<path d="M47.0634 12.1047L47.5881 11.9916C47.863 11.9916 48.1253 12.1047 48.3751 12.331C48.625 12.5573 48.7499 12.7332 48.7499 12.8589C48.7499 12.9846 47.9754 14.2039 46.4263 16.5168C44.8773 18.8045 44.1028 20.4008 44.1028 21.3059C44.1028 21.3813 44.1153 21.4567 44.1403 21.5321C44.2652 22.1103 44.54 22.3994 44.9648 22.3994C46.2639 22.3994 48.6375 20.2374 52.0853 15.9134C52.1603 15.8128 52.2477 15.7626 52.3477 15.7626C52.4476 15.7626 52.4976 15.8631 52.4976 16.0642C52.4976 16.2402 52.3851 16.479 52.1603 16.7807C48.9623 21.0796 46.5263 23.229 44.8523 23.229C44.6275 23.229 44.4151 23.1913 44.2152 23.1159C43.1159 22.6885 42.5662 21.8589 42.5662 20.6271C42.5662 20.1997 42.6162 19.7723 42.7161 19.345L40.3926 21.6075C38.9185 22.9148 37.8442 23.5684 37.1696 23.5684C36.52 23.5684 35.8954 23.3547 35.2958 22.9274C34.6212 22.4246 34.2839 21.7584 34.2839 20.9288C34.2839 19.0936 35.5581 16.9064 38.1065 14.3673C40.6549 11.8031 42.991 10.5209 45.1147 10.5209C45.9391 10.5209 46.4888 10.8101 46.7636 11.3883C46.8386 11.5894 46.901 11.7654 46.951 11.9162C47.001 12.0419 47.0385 12.1047 47.0634 12.1047ZM35.8579 21.3813C35.8579 22.2863 36.1702 22.7388 36.7948 22.7388C38.2439 22.7388 40.2177 21.1425 42.7161 17.9497L46.6887 12.4441C46.4888 12.0922 46.164 11.9162 45.7143 11.9162C44.1902 11.9162 42.1665 13.1103 39.6431 15.4986C37.1196 17.8617 35.8579 19.8226 35.8579 21.3813Z" fill="#18181B"/>
<path d="M59.8096 11.2374L65.2063 11.162C65.2812 11.2123 65.3187 11.25 65.3187 11.2751C65.3187 11.5014 63.7572 11.8156 60.6341 12.2179C57.536 12.6201 55.8621 12.8589 55.6122 12.9344C55.1375 13.3617 54.2631 14.6439 52.9889 16.7807C51.7147 18.8925 51.0776 20.4385 51.0776 21.419C51.0776 22.3492 51.7147 22.8142 52.9889 22.8142C53.5885 22.8142 54.3755 22.6257 55.3499 22.2486C56.3243 21.8715 57.0738 21.5196 57.5985 21.1927C58.9976 20.3128 60.4967 19.0182 62.0957 17.3087C62.4455 16.9567 62.6828 16.7807 62.8078 16.7807C62.8827 16.7807 62.9202 16.8561 62.9202 17.007C62.9202 17.1578 62.7328 17.4595 62.358 17.912C61.0589 19.5209 59.5973 20.8156 57.9733 21.7961C56.0245 23.0028 54.1631 23.6061 52.3892 23.6061C51.6147 23.6061 50.9776 23.4427 50.4779 23.1159C50.0032 22.764 49.7659 22.0726 49.7659 21.0419C49.7659 20.0112 50.2156 18.6034 51.115 16.8184C52.0145 15.0084 52.7015 13.6634 53.1762 12.7835C52.8265 12.8589 52.5267 12.8966 52.2768 12.8966C51.5523 12.8966 51.19 12.6075 51.19 12.0293C51.19 11.602 51.4898 11.3003 52.0894 11.1243C52.1644 11.1243 52.2768 11.1117 52.4267 11.0866H54.6004C55.0501 10.5084 55.5623 9.84218 56.1369 9.08799C56.8365 8.18296 57.3112 7.73045 57.561 7.73045C57.8109 7.73045 58.1232 7.83101 58.4979 8.03212C58.8727 8.23324 59.0601 8.47207 59.0601 8.7486C59.0601 9.02514 58.4605 9.84218 57.2612 11.1997C57.9108 11.2249 58.7603 11.2374 59.8096 11.2374Z" fill="#18181B"/>
<path d="M68.7994 23.5684C66.9255 23.5684 65.9886 22.5251 65.9886 20.4385C65.9886 19.3827 66.2634 18.2263 66.8131 16.9693C67.3627 15.7123 67.9624 14.6564 68.612 13.8017C68.4871 13.8268 68.3247 13.8394 68.1248 13.8394C67.5251 13.8394 67.0255 13.412 66.6257 12.5573L63.8524 16.1774C62.3034 18.1131 61.404 19.081 61.1541 19.081C61.0292 19.081 60.9667 19.0307 60.9667 18.9302C60.9667 18.6788 61.1791 18.3142 61.6038 17.8366C63.7775 15.2975 65.314 13.148 66.2135 11.3883C66.7881 9.20112 67.5127 8.10754 68.3871 8.10754C68.9618 8.10754 69.2491 8.35894 69.2491 8.86173C69.2491 9.36452 68.9368 10.0056 68.3122 10.7849L67.4127 11.9916C67.4127 12.5196 67.8 12.7835 68.5745 12.7835C69.0242 12.7835 69.5239 12.6201 70.0736 12.2933L71.048 11.6899C71.0979 11.6648 71.2229 11.6522 71.4227 11.6522C71.6226 11.6522 71.835 11.7779 72.0598 12.0293C72.2847 12.2807 72.3596 12.507 72.2847 12.7081L69.6988 15.9888C68.0998 18.0503 67.3003 19.6844 67.3003 20.8911C67.3003 22.0726 67.8499 22.6634 68.9493 22.6634C70.0986 22.6634 71.5102 22.0475 73.1841 20.8156C74.1835 20.0866 75.0954 19.2696 75.9199 18.3645C76.6945 17.4595 77.1192 17.007 77.1941 17.007C77.369 17.007 77.4565 17.1075 77.4565 17.3087C77.4565 17.4846 77.3441 17.6983 77.1192 17.9497L75.9199 19.3073C75.2454 20.0112 74.4958 20.6899 73.6713 21.3436C71.6976 22.8268 70.0736 23.5684 68.7994 23.5684Z" fill="#18181B"/>
<path d="M85.6847 15.3855C85.6847 16.2654 84.8477 17.736 83.1737 19.7975C81.2 22.236 79.5135 23.4553 78.1144 23.4553H77.5147C76.8651 23.4553 76.353 23.1159 75.9782 22.4372C75.6784 21.9595 75.5285 21.4316 75.5285 20.8534C75.5285 19.345 76.6153 17.2332 78.789 14.5182C80.9876 11.7779 82.7615 10.4078 84.1106 10.4078C85.3849 10.4078 86.022 11.0866 86.022 12.4441C86.022 12.7961 85.9595 13.2486 85.8346 13.8017C85.8596 13.8771 86.0969 13.9148 86.5466 13.9148C86.9964 13.9148 87.6834 13.676 88.6079 13.1983C88.5829 13.6257 87.596 14.2416 85.6472 15.0461C85.6722 15.1466 85.6847 15.2598 85.6847 15.3855ZM83.2487 13.4246C82.3992 13.4246 81.1875 14.4302 79.6134 16.4413C78.0644 18.4525 77.2899 19.9358 77.2899 20.8911C77.2899 21.8464 77.5897 22.324 78.1893 22.324C79.2637 22.324 80.6253 21.3436 82.2743 19.3827C83.9233 17.4218 84.7478 16.014 84.7478 15.1592C84.348 14.933 83.8483 14.3547 83.2487 13.4246Z" fill="#18181B"/>
<path d="M104.357 22.9274C102.659 22.9274 101.809 22.1355 101.809 20.5517C101.809 19.6466 102.209 18.4148 103.008 16.8561C103.808 15.2723 104.645 13.9399 105.519 12.8589C103.97 13.6131 102.184 14.9832 100.16 16.9693C98.1363 18.9302 96.7247 20.9916 95.9252 23.1536C95.8003 23.3547 95.5879 23.4553 95.2881 23.4553C94.6885 23.4553 94.3886 23.1159 94.3886 22.4372C94.6385 21.0545 95.2006 19.4707 96.0751 17.6858C96.3499 17.1075 97.1619 15.4232 98.5111 12.6327C96.5623 13.9148 94.9008 15.2975 93.5267 16.7807C92.1775 18.2388 90.9158 19.7095 89.7415 21.1927C88.5922 22.676 87.9426 23.4176 87.7927 23.4176C87.4679 23.4176 87.1806 23.2668 86.9308 22.9651C86.7059 22.6634 86.5935 22.3617 86.5935 22.0601C86.5935 21.6075 87.2431 19.9483 88.5423 17.0824L86.2937 19.4581C85.744 20.0112 85.4067 20.2877 85.2818 20.2877C85.1319 20.2877 85.0569 20.2123 85.0569 20.0615C85.0569 19.8855 85.1569 19.6969 85.3568 19.4958C86.2812 18.5656 87.1057 17.6355 87.8302 16.7053C88.5548 15.7751 89.754 14.1159 91.428 11.7277C91.7028 11.3506 92.0901 11.162 92.5898 11.162C93.0894 11.162 93.3393 11.4008 93.3393 11.8785C93.3393 12.0545 92.6772 13.2863 91.353 15.574C90.0288 17.8366 89.2918 19.257 89.1419 19.8352C90.1663 18.7039 91.7028 17.183 93.7515 15.2723C96.8246 12.4064 98.8484 10.9735 99.8228 10.9735C100.123 10.9735 100.397 11.0615 100.647 11.2374C100.897 11.4134 101.022 11.6145 101.022 11.8408C101.022 12.0419 100.535 12.9846 99.5604 14.669C98.611 16.4036 98.0863 17.4344 97.9864 17.7612C100.76 15.4232 102.146 14.2416 102.146 14.2165C104.495 12.3813 106.181 11.4637 107.206 11.4637C107.505 11.4637 107.78 11.5642 108.03 11.7654C108.305 11.9413 108.442 12.155 108.442 12.4064C108.442 12.4567 107.63 13.5251 106.006 15.6117C104.382 17.6732 103.47 19.3701 103.271 20.7025C103.221 21.155 103.308 21.4944 103.533 21.7207C103.758 21.9469 104.158 22.0601 104.732 22.0601C105.332 22.0601 106.194 21.6578 107.318 20.8534C108.467 20.0237 109.629 18.9176 110.803 17.5349C111.253 17.0321 111.553 16.7807 111.703 16.7807C111.878 16.7807 111.965 16.8436 111.965 16.9693C111.965 17.1453 111.853 17.3464 111.628 17.5726C110.404 19.0559 109.08 20.3254 107.655 21.3813C106.256 22.412 105.157 22.9274 104.357 22.9274Z" fill="#18181B"/>
<path d="M122.566 12.1047L123.091 11.9916C123.365 11.9916 123.628 12.1047 123.878 12.331C124.127 12.5573 124.252 12.7332 124.252 12.8589C124.252 12.9846 123.478 14.2039 121.929 16.5168C120.38 18.8045 119.605 20.4008 119.605 21.3059C119.605 21.3813 119.618 21.4567 119.643 21.5321C119.768 22.1103 120.042 22.3994 120.467 22.3994C121.766 22.3994 124.14 20.2374 127.588 15.9134C127.663 15.8128 127.75 15.7626 127.85 15.7626C127.95 15.7626 128 15.8631 128 16.0642C128 16.2402 127.888 16.479 127.663 16.7807C124.465 21.0796 122.029 23.229 120.355 23.229C120.13 23.229 119.918 23.1913 119.718 23.1159C118.618 22.6885 118.069 21.8589 118.069 20.6271C118.069 20.1997 118.119 19.7723 118.219 19.345L115.895 21.6075C114.421 22.9148 113.347 23.5684 112.672 23.5684C112.022 23.5684 111.398 23.3547 110.798 22.9274C110.124 22.4246 109.786 21.7584 109.786 20.9288C109.786 19.0936 111.061 16.9064 113.609 14.3673C116.157 11.8031 118.493 10.5209 120.617 10.5209C121.442 10.5209 121.991 10.8101 122.266 11.3883C122.341 11.5894 122.403 11.7654 122.453 11.9162C122.503 12.0419 122.541 12.1047 122.566 12.1047ZM111.36 21.3813C111.36 22.2863 111.673 22.7388 112.297 22.7388C113.746 22.7388 115.72 21.1425 118.219 17.9497L122.191 12.4441C121.991 12.0922 121.666 11.9162 121.217 11.9162C119.693 11.9162 117.669 13.1103 115.145 15.4986C112.622 17.8617 111.36 19.8226 111.36 21.3813Z" fill="#18181B"/>
</svg>
