<svg width="188" height="40" viewBox="0 0 188 40" fill="none" xmlns="http://www.w3.org/2000/svg">
<path d="M21.9858 6.70351L23.4728 5.21643C26.3931 2.29621 31.1472 2.22393 34.0843 5.12733C35.1971 6.22993 35.9368 7.65344 36.1991 9.19792C36.4614 10.7424 36.2333 12.3303 35.5469 13.7385C35.2176 14.4112 35.1067 15.1699 35.2295 15.9087C35.3524 16.6475 35.7029 17.3294 36.2322 17.8593C37.2055 16.8838 37.9768 15.7261 38.5025 14.4524C39.0281 13.1786 39.2977 11.8138 39.2958 10.4359C39.2937 9.05793 39.0205 7.69387 38.4912 6.42162C37.9619 5.14936 37.1871 3.99385 36.2111 3.0211C32.1042 -1.06266 25.4379 -0.981395 21.3425 3.11384L7.16817 17.2878L6.00291 16.1225C3.03315 13.1528 3.01422 8.29843 6.03637 5.38145C7.15503 4.30505 8.58023 3.60237 10.1153 3.37043C11.6503 3.13849 13.2195 3.38871 14.6062 4.08655C15.2392 4.41091 15.9584 4.52693 16.6613 4.41808C17.3641 4.30922 18.0146 3.98104 18.5198 3.4804L18.5559 3.44445C18.5672 3.43328 18.5761 3.41999 18.5822 3.40535C18.5883 3.39072 18.5914 3.37502 18.5914 3.35917C18.5914 3.34332 18.5883 3.32762 18.5822 3.31299C18.5761 3.29836 18.5672 3.28507 18.5559 3.27389C16.605 1.372 13.9907 0.303712 11.2662 0.295074C8.54164 0.286439 5.92059 1.33813 3.95768 3.22761C-0.270652 7.30947 -0.255542 14.0972 3.90031 18.253L18.0704 32.4232L16.5652 33.9284C13.645 36.8487 8.89062 36.9209 5.95376 34.0175C4.84088 32.915 4.10132 31.4914 3.83895 29.947C3.5766 28.4025 3.80461 26.8147 4.49097 25.4064C4.82026 24.7337 4.93124 23.975 4.80843 23.2363C4.68559 22.4974 4.33508 21.8154 3.80585 21.2855C2.83263 22.2611 2.06115 23.4187 1.53548 24.6924C1.0098 25.9663 0.740245 27.331 0.742198 28.709C0.744151 30.0869 1.01758 31.4511 1.54686 32.7232C2.07614 33.9955 2.85091 35.1511 3.82689 36.1238C7.9336 40.2077 14.6001 40.1266 18.6955 36.0312L32.8882 21.8383L34.0579 23.008C36.9781 25.9282 37.0504 30.6824 34.147 33.6192C33.0444 34.7323 31.6209 35.4717 30.0764 35.7343C28.532 35.9966 26.9441 35.7685 25.5358 35.082C24.863 34.7526 24.1038 34.6415 23.3648 34.7646C22.6257 34.8876 21.9435 35.2384 21.4136 35.7681C22.3892 36.7414 23.5468 37.5129 24.8205 38.0386C26.0944 38.5642 27.4591 38.8338 28.8372 38.8319C30.215 38.8298 31.5792 38.5564 32.8513 38.0271C34.1237 37.4978 35.2792 36.723 36.2519 35.7471C40.3358 31.6404 40.2546 24.9739 36.1593 20.8786L21.9858 6.70351ZM20.1864 30.3062L9.28472 19.4045L19.869 8.82044L30.7707 19.7222L20.1864 30.3062Z" fill="#0EA5E9"/>
<path d="M57.3931 32.2151C55.2238 32.2151 53.5654 31.5786 52.418 30.3057C51.2795 29.0328 50.643 27.2937 50.5086 25.0885L53.9509 24.2279C54.1212 27.6702 55.2686 29.3914 57.3931 29.3914C59.1143 29.3914 59.9749 28.5308 59.9749 26.8096C59.9749 26.2987 59.9031 25.828 59.7597 25.3978C59.6253 24.9585 59.4146 24.5596 59.1277 24.201C58.8409 23.8335 58.5809 23.5422 58.3478 23.327C58.1148 23.1029 57.7965 22.8295 57.3931 22.5068L53.0903 19.0645C52.3014 18.446 51.6694 17.6616 51.1943 16.7114C50.7282 15.7522 50.4951 14.663 50.4951 13.4439C50.4951 11.6689 51.0464 10.2571 52.149 9.20824C53.2516 8.15942 54.7128 7.63501 56.5326 7.63501C58.4868 7.63501 60.0376 8.1146 61.185 9.07378C62.3414 10.024 63.0541 11.3731 63.323 13.1212C63.3499 13.3094 63.3813 13.5694 63.4172 13.9011L59.9749 14.7616C59.9659 14.6092 59.9435 14.3806 59.9076 14.0759C59.7552 12.9822 59.4101 12.1082 58.8723 11.4538C58.3434 10.7904 57.5635 10.4588 56.5326 10.4588C55.7079 10.4588 55.0714 10.6918 54.6232 11.158C54.175 11.6152 53.9509 12.2561 53.9509 13.0808C53.9509 14.4344 54.5246 15.5684 55.672 16.4828L59.9749 19.9251C62.2697 21.7807 63.4172 23.9993 63.4172 26.581C63.4172 28.347 62.8703 29.7275 61.7767 30.7226C60.692 31.7176 59.2308 32.2151 57.3931 32.2151Z" fill="#18181B"/>
<path d="M70.611 29.3914C71.5164 29.3914 72.377 29.1583 73.1927 28.6921V18.0426C73.1569 18.0246 73.0672 17.9708 72.9238 17.8812C72.7804 17.7916 72.6773 17.7333 72.6145 17.7064C72.5607 17.6705 72.4666 17.6168 72.3321 17.545C72.1977 17.4733 72.0856 17.424 71.996 17.3971C71.9153 17.3613 71.8077 17.3254 71.6733 17.2896C71.5478 17.2447 71.4223 17.2134 71.2968 17.1954C71.1802 17.1775 71.0547 17.1685 70.9203 17.1685C70.6334 17.1685 70.3779 17.2358 70.1538 17.3702C69.9387 17.4957 69.7594 17.6481 69.616 17.8274C69.4725 18.0067 69.347 18.2622 69.2395 18.5939C69.1409 18.9255 69.0691 19.2214 69.0243 19.4813C68.9795 19.7323 68.9436 20.073 68.9167 20.5033C68.8899 20.9246 68.8719 21.2518 68.863 21.4848C68.863 21.7179 68.863 22.0451 68.863 22.4664C68.863 22.4844 68.863 22.4978 68.863 22.5068C68.863 22.6592 68.863 22.9057 68.863 23.2463C68.863 23.587 68.863 23.9142 68.863 24.2279C68.863 24.5417 68.863 24.8375 68.863 25.1154C68.8719 25.716 68.8988 26.2449 68.9436 26.7021C68.9974 27.1503 69.0826 27.594 69.1991 28.0333C69.3246 28.4636 69.5039 28.7997 69.737 29.0417C69.979 29.2748 70.2704 29.3914 70.611 29.3914ZM73.1927 37.1365V30.4267C72.6818 30.9556 72.1529 31.3859 71.606 31.7176C71.0682 32.0493 70.4496 32.2151 69.7504 32.2151C69.0871 32.2151 68.4954 32.0493 67.9755 31.7176C67.4645 31.3769 67.0522 30.9422 66.7384 30.4133C66.4336 29.8844 66.1782 29.2614 65.972 28.5442C65.7748 27.8181 65.6358 27.1055 65.5551 26.4062C65.4834 25.707 65.4476 24.9809 65.4476 24.2279V21.6059C65.4476 20.826 65.4834 20.1133 65.5551 19.4679C65.6268 18.8225 65.7568 18.186 65.9451 17.5585C66.1333 16.931 66.3799 16.4021 66.6846 15.9718C66.9984 15.5326 67.4107 15.1829 67.9217 14.923C68.4327 14.6541 69.0243 14.5196 69.6966 14.5196C70.0821 14.5196 70.4407 14.5734 70.7724 14.6809C71.113 14.7796 71.4357 14.9409 71.7405 15.165C72.0543 15.3891 72.2963 15.5863 72.4666 15.7567C72.6459 15.918 72.8879 16.1601 73.1927 16.4828V14.7616H76.635V37.1365H73.1927Z" fill="#18181B"/>
<path d="M81.8522 32.2151C81.0992 32.2151 80.4941 31.9507 80.037 31.4218C79.5798 30.8839 79.3512 30.2206 79.3512 29.4317V14.7616H82.7935V28.3829C82.7935 28.7414 82.9011 29.0328 83.1162 29.2569C83.3403 29.481 83.6272 29.5931 83.9768 29.5931C84.165 29.5931 84.3488 29.5706 84.5281 29.5258C84.7074 29.481 84.8822 29.4048 85.0525 29.2972C85.2318 29.1807 85.3707 29.0911 85.4693 29.0283C85.5679 28.9566 85.7069 28.8401 85.8862 28.6787C86.0744 28.5173 86.1909 28.4187 86.2358 28.3829V14.7616H89.6781V31.9731H86.2358V30.1175C85.8951 30.4133 85.6441 30.6284 85.4828 30.7629C85.3304 30.8974 85.0928 31.0811 84.7701 31.3142C84.4474 31.5383 84.1605 31.7041 83.9095 31.8117C83.6675 31.9103 83.3627 32 82.9952 32.0806C82.6276 32.1703 82.2467 32.2151 81.8522 32.2151Z" fill="#18181B"/>
<path d="M97.3963 29.3914C97.6384 29.3914 97.8714 29.3196 98.0955 29.1762C98.3286 29.0328 98.5034 28.8938 98.6199 28.7594C98.7365 28.6249 98.8799 28.4456 99.0502 28.2215C99.0771 28.1767 99.0995 28.1453 99.1175 28.1274V23.3673C98.974 23.466 98.7365 23.6183 98.4048 23.8245C98.0731 24.0307 97.8087 24.201 97.6115 24.3355C97.4142 24.461 97.1767 24.6403 96.8988 24.8734C96.6209 25.0975 96.4058 25.3171 96.2534 25.5322C96.101 25.7384 95.9665 25.9939 95.85 26.2987C95.7334 26.6035 95.6752 26.9217 95.6752 27.2534C95.6752 28.6787 96.2489 29.3914 97.3963 29.3914ZM95.6752 32.2151C94.716 32.2151 93.9002 31.8028 93.2279 30.978C92.5646 30.1444 92.2329 29.2076 92.2329 28.1677C92.2329 27.334 92.3718 26.5766 92.6497 25.8953C92.9366 25.214 93.2369 24.6717 93.5506 24.2683C93.8644 23.8559 94.3888 23.4346 95.1239 23.0043C95.8589 22.565 96.4147 22.2647 96.7912 22.1034C97.1677 21.942 97.8221 21.6776 98.7544 21.31C98.9158 21.2473 99.0368 21.198 99.1175 21.1621V19.9251C99.1175 19.0555 98.9964 18.3832 98.7544 17.9081C98.5124 17.424 98.0597 17.182 97.3963 17.182C96.8047 17.182 96.3789 17.3882 96.1189 17.8005C95.8679 18.2039 95.7245 18.7642 95.6886 19.4813C95.6797 19.5799 95.6752 19.7278 95.6752 19.9251H92.2329C92.2508 18.2756 92.7125 16.9624 93.6179 15.9853C94.5233 15.0081 95.7827 14.5196 97.3963 14.5196C99.0009 14.5196 100.26 15.0171 101.175 16.0121C102.098 16.9982 102.56 18.3025 102.56 19.9251V27.6702C102.56 29.4631 102.708 30.8974 103.003 31.9731H99.5746L99.1175 29.3914C98.9382 29.7499 98.7903 30.0278 98.6737 30.225C98.5662 30.4223 98.4048 30.6688 98.1897 30.9646C97.9745 31.2514 97.7594 31.4756 97.5442 31.6369C97.3291 31.7893 97.0602 31.9238 96.7374 32.0403C96.4147 32.1568 96.0606 32.2151 95.6752 32.2151Z" fill="#18181B"/>
<path d="M105.531 31.9731V14.7616H108.974V17.061C109.323 16.3797 109.83 15.788 110.493 15.286C111.165 14.7751 111.91 14.5196 112.725 14.5196C112.752 14.5196 112.936 14.5375 113.277 14.5734V18.3787C112.64 18.1277 112.004 18.0022 111.367 18.0022C110.65 18.0022 110.072 18.2174 109.633 18.6476C109.193 19.0779 108.974 19.6472 108.974 20.3553V31.9731H105.531Z" fill="#18181B"/>
<path d="M119.596 32.2151C118.763 32.2151 118.037 32.0717 117.418 31.7848C116.809 31.498 116.32 31.1259 115.952 30.6688C115.594 30.2026 115.302 29.611 115.078 28.8938C114.854 28.1677 114.697 27.4461 114.608 26.729C114.527 26.0029 114.478 25.1602 114.46 24.201C114.433 23.448 114.433 22.695 114.46 21.942C114.487 21.0456 114.545 20.2523 114.635 19.562C114.733 18.8628 114.899 18.186 115.132 17.5316C115.365 16.8772 115.666 16.3393 116.033 15.918C116.41 15.4967 116.898 15.1605 117.499 14.9095C118.108 14.6496 118.817 14.5196 119.623 14.5196C120.358 14.5196 121.004 14.6182 121.56 14.8154C122.124 15.0037 122.59 15.295 122.958 15.6894C123.335 16.0749 123.644 16.5052 123.886 16.9803C124.137 17.4554 124.325 18.0336 124.451 18.7149C124.576 19.3872 124.661 20.0506 124.706 20.705C124.76 21.3593 124.787 22.1123 124.787 22.964V23.3673H117.902V24.2279C117.902 24.3445 117.902 24.5282 117.902 24.7792C117.884 25.1109 117.88 25.456 117.889 25.8146C117.907 26.1642 117.925 26.5093 117.942 26.85C117.96 27.1906 118.01 27.5178 118.09 27.8316C118.171 28.1364 118.27 28.4053 118.386 28.6384C118.503 28.8714 118.664 29.0552 118.87 29.1897C119.085 29.3241 119.336 29.3914 119.623 29.3914C119.982 29.3914 120.278 29.3241 120.511 29.1897C120.744 29.0462 120.914 28.8356 121.022 28.5577C121.138 28.2798 121.219 28.0019 121.264 27.724C121.309 27.4461 121.335 27.0965 121.344 26.6752V25.9491H124.76V26.6348C124.679 28.4725 124.226 29.862 123.402 30.8032C122.577 31.7445 121.309 32.2151 119.596 32.2151ZM117.902 21.6462H121.318V20.6108C121.309 20.1536 121.282 19.7547 121.237 19.4141C121.192 19.0735 121.111 18.7328 120.995 18.3922C120.887 18.0515 120.717 17.7916 120.484 17.6123C120.251 17.433 119.964 17.3433 119.623 17.3433C119.274 17.3433 118.978 17.4375 118.736 17.6257C118.503 17.814 118.328 18.0874 118.211 18.446C118.104 18.7956 118.028 19.1407 117.983 19.4813C117.938 19.822 117.911 20.2298 117.902 20.705V21.6462Z" fill="#18181B"/>
<path d="M133.715 32.2151C131.546 32.2151 129.887 31.5786 128.74 30.3057C127.602 29.0328 126.965 27.2937 126.831 25.0885L130.273 24.2279C130.443 27.6702 131.591 29.3914 133.715 29.3914C135.436 29.3914 136.297 28.5308 136.297 26.8096C136.297 26.2987 136.225 25.828 136.082 25.3978C135.947 24.9585 135.737 24.5596 135.45 24.201C135.163 23.8335 134.903 23.5422 134.67 23.327C134.437 23.1029 134.119 22.8295 133.715 22.5068L129.412 19.0645C128.623 18.446 127.991 17.6616 127.516 16.7114C127.05 15.7522 126.817 14.663 126.817 13.4439C126.817 11.6689 127.368 10.2571 128.471 9.20824C129.574 8.15942 131.035 7.63501 132.855 7.63501C134.809 7.63501 136.36 8.1146 137.507 9.07378C138.663 10.024 139.376 11.3731 139.645 13.1212C139.672 13.3094 139.703 13.5694 139.739 13.9011L136.297 14.7616C136.288 14.6092 136.266 14.3806 136.23 14.0759C136.077 12.9822 135.732 12.1082 135.194 11.4538C134.665 10.7904 133.885 10.4588 132.855 10.4588C132.03 10.4588 131.393 10.6918 130.945 11.158C130.497 11.6152 130.273 12.2561 130.273 13.0808C130.273 14.4344 130.847 15.5684 131.994 16.4828L136.297 19.9251C138.592 21.7807 139.739 23.9993 139.739 26.581C139.739 28.347 139.192 29.7275 138.099 30.7226C137.014 31.7176 135.553 32.2151 133.715 32.2151Z" fill="#18181B"/>
<path d="M146.879 32.2151C145.526 32.2151 144.54 31.87 143.921 31.1797C143.311 30.4895 142.998 29.4451 142.98 28.0467V17.3433H141.259V14.7616H142.98V8.73762H146.422V14.7616H149.004V17.3433H146.422V27.3878C146.422 28.0781 146.516 28.5846 146.704 28.9073C146.893 29.23 147.274 29.3914 147.847 29.3914C148.098 29.3914 148.484 29.3465 149.004 29.2569V32.0538C148.143 32.1613 147.435 32.2151 146.879 32.2151Z" fill="#18181B"/>
<path d="M160.218 30.6015C159.42 31.6773 158.098 32.2151 156.251 32.2151C154.405 32.2151 153.083 31.6773 152.285 30.6015C151.487 29.5258 151.088 27.975 151.088 25.9491V20.7856C151.088 18.7597 151.487 17.2089 152.285 16.1332C153.083 15.0574 154.405 14.5196 156.251 14.5196C158.098 14.5196 159.42 15.0574 160.218 16.1332C161.016 17.2089 161.415 18.7597 161.415 20.7856V25.9491C161.415 27.975 161.016 29.5258 160.218 30.6015ZM155.606 29.2838C155.794 29.3555 156.009 29.3914 156.251 29.3914C156.493 29.3914 156.704 29.3555 156.883 29.2838C157.072 29.2121 157.224 29.1269 157.341 29.0283C157.466 28.9207 157.569 28.7683 157.65 28.5711C157.731 28.3649 157.793 28.1857 157.838 28.0333C157.883 27.8809 157.914 27.6612 157.932 27.3744C157.95 27.0875 157.959 26.8634 157.959 26.7021C157.968 26.5317 157.973 26.2807 157.973 25.9491V20.7856C157.973 20.454 157.968 20.2074 157.959 20.0461C157.959 19.8758 157.95 19.6472 157.932 19.3603C157.914 19.0735 157.883 18.8538 157.838 18.7014C157.793 18.549 157.731 18.3742 157.65 18.177C157.569 17.9708 157.466 17.8184 157.341 17.7198C157.224 17.6123 157.072 17.5226 156.883 17.4509C156.704 17.3792 156.493 17.3433 156.251 17.3433C156.009 17.3433 155.794 17.3792 155.606 17.4509C155.427 17.5226 155.274 17.6123 155.149 17.7198C155.032 17.8184 154.934 17.9708 154.853 18.177C154.772 18.3742 154.71 18.549 154.665 18.7014C154.62 18.8538 154.589 19.0735 154.571 19.3603C154.553 19.6472 154.539 19.8758 154.53 20.0461C154.53 20.2074 154.53 20.454 154.53 20.7856V25.9491C154.53 26.2807 154.53 26.5317 154.53 26.7021C154.539 26.8634 154.553 27.0875 154.571 27.3744C154.589 27.6612 154.62 27.8809 154.665 28.0333C154.71 28.1857 154.772 28.3649 154.853 28.5711C154.934 28.7683 155.032 28.9207 155.149 29.0283C155.274 29.1269 155.427 29.2121 155.606 29.2838Z" fill="#18181B"/>
<path d="M164.239 31.9731V14.7616H167.681V16.6172C168.192 16.1511 168.609 15.797 168.931 15.555C169.254 15.304 169.698 15.0709 170.263 14.8558C170.836 14.6316 171.446 14.5196 172.091 14.5196C172.826 14.5196 173.423 14.7885 173.88 15.3264C174.337 15.8642 174.565 16.5231 174.565 17.303V31.9731H171.123V19.0645C171.123 18.4639 171.038 18.0291 170.868 17.7602C170.697 17.4823 170.352 17.3433 169.832 17.3433C169.536 17.3433 169.241 17.4061 168.945 17.5316C168.658 17.6481 168.443 17.7602 168.299 17.8678C168.156 17.9664 167.95 18.1277 167.681 18.3518V31.9731H164.239Z" fill="#18181B"/>
<path d="M182.445 32.2151C181.611 32.2151 180.885 32.0717 180.267 31.7848C179.657 31.498 179.169 31.1259 178.801 30.6688C178.443 30.2026 178.151 29.611 177.927 28.8938C177.703 28.1677 177.546 27.4461 177.456 26.729C177.376 26.0029 177.326 25.1602 177.309 24.201C177.282 23.448 177.282 22.695 177.309 21.942C177.335 21.0456 177.394 20.2523 177.483 19.562C177.582 18.8628 177.748 18.186 177.981 17.5316C178.214 16.8772 178.514 16.3393 178.882 15.918C179.258 15.4967 179.747 15.1605 180.347 14.9095C180.957 14.6496 181.665 14.5196 182.472 14.5196C183.207 14.5196 183.852 14.6182 184.408 14.8154C184.973 15.0037 185.439 15.295 185.807 15.6894C186.183 16.0749 186.492 16.5052 186.734 16.9803C186.985 17.4554 187.174 18.0336 187.299 18.7149C187.425 19.3872 187.51 20.0506 187.555 20.705C187.609 21.3593 187.635 22.1123 187.635 22.964V23.3673H180.751V24.2279C180.751 24.3445 180.751 24.5282 180.751 24.7792C180.733 25.1109 180.728 25.456 180.737 25.8146C180.755 26.1642 180.773 26.5093 180.791 26.85C180.809 27.1906 180.858 27.5178 180.939 27.8316C181.02 28.1364 181.118 28.4053 181.235 28.6384C181.351 28.8714 181.513 29.0552 181.719 29.1897C181.934 29.3241 182.185 29.3914 182.472 29.3914C182.831 29.3914 183.126 29.3241 183.359 29.1897C183.593 29.0462 183.763 28.8356 183.87 28.5577C183.987 28.2798 184.068 28.0019 184.112 27.724C184.157 27.4461 184.184 27.0965 184.193 26.6752V25.9491H187.609V26.6348C187.528 28.4725 187.075 29.862 186.25 30.8032C185.426 31.7445 184.157 32.2151 182.445 32.2151ZM180.751 21.6462H184.166V20.6108C184.157 20.1536 184.13 19.7547 184.086 19.4141C184.041 19.0735 183.96 18.7328 183.844 18.3922C183.736 18.0515 183.566 17.7916 183.333 17.6123C183.099 17.433 182.813 17.3433 182.472 17.3433C182.122 17.3433 181.827 17.4375 181.585 17.6257C181.351 17.814 181.177 18.0874 181.06 18.446C180.953 18.7956 180.876 19.1407 180.832 19.4813C180.787 19.822 180.76 20.2298 180.751 20.705V21.6462Z" fill="#18181B"/>
</svg>
