<svg width="180" height="37" viewBox="0 0 180 37" fill="none" xmlns="http://www.w3.org/2000/svg">
<path d="M6.90683 12.7783L11.3395 10.2218L8.86525 5.93868H32.1347L20.5038 26.0911L18.0295 21.8005L13.5969 24.3644L20.5038 36.3244L41 0.818359H0L6.90683 12.7783Z" fill="#FBBF24"/>
<path d="M59.3895 29.8184L68.2395 8.81836H64.0095L57.7695 24.0584L51.4995 8.81836H47.2695L56.1195 29.8184H59.3895Z" fill="#3F3F46"/>
<path d="M73.2434 8.81836V29.8184H88.8734V26.0984H77.2634V21.0584H87.0734V17.3384H77.2634V12.5384H88.7234V8.81836H73.2434Z" fill="#3F3F46"/>
<path d="M94.6419 8.81836V29.8184H98.6619V22.4084H103.552L107.962 29.8184H112.432L107.632 21.7184C110.062 20.6384 111.622 18.3284 111.622 15.5984C111.622 13.6784 110.932 12.0584 109.522 10.7684C108.142 9.47836 106.432 8.81836 104.362 8.81836H94.6419ZM104.362 12.5384C106.132 12.5384 107.422 13.8284 107.422 15.5984C107.422 17.3684 106.132 18.6884 104.362 18.6884H98.6619V12.5384H104.362Z" fill="#3F3F46"/>
<path d="M123.181 12.5384V29.8184H127.231V12.5384H134.191V8.81836H116.221V12.5384H123.181Z" fill="#3F3F46"/>
<path d="M139.665 8.81836V29.8184H155.295V26.0984H143.685V21.0584H153.495V17.3384H143.685V12.5384H155.145V8.81836H139.665Z" fill="#3F3F46"/>
<path d="M167.394 19.1084L159.594 29.8184H164.424L169.794 22.4084L175.164 29.8184H179.964L172.194 19.1084L179.664 8.81836H174.864L169.794 15.8084L164.724 8.81836H159.894L167.394 19.1084Z" fill="#3F3F46"/>
</svg>
