<svg width="158" height="32" viewBox="0 0 158 32" fill="none" xmlns="http://www.w3.org/2000/svg">
<path d="M4.73191 7.19019L6.56399 8.10623C6.90123 8.25353 7.2682 8.3199 7.63562 8.30002C8.00305 8.28014 8.36071 8.17456 8.68005 7.99172L10.4114 6.86499C10.7093 6.64876 10.9518 6.36502 11.119 6.03703C11.2861 5.70904 11.3733 5.34611 11.3732 4.97795L11.2633 2.91228C11.2232 2.5471 11.0979 2.19639 10.8974 1.88851C10.6969 1.58063 10.4269 1.32414 10.1091 1.13974L8.27699 0.200795C7.94044 0.0517552 7.57347 -0.01594 7.20586 0.00315947C6.83825 0.0222589 6.48026 0.127603 6.16093 0.31072L4.42966 1.43745C4.13227 1.65423 3.89016 1.93807 3.72307 2.26596C3.55594 2.59381 3.46846 2.95652 3.46777 3.32449L3.5777 5.39017C3.61329 5.76034 3.73654 6.11668 3.93724 6.42969C4.13795 6.74275 4.41038 7.00345 4.73191 7.19019Z" fill="#34D399"/>
<path d="M15.783 9.86509L13.9509 8.92615C13.6145 8.77889 13.2482 8.71257 12.8815 8.73245C12.5149 8.75233 12.158 8.8579 11.8394 9.04065L10.0898 10.1674C9.79348 10.3852 9.55215 10.6692 9.38515 10.9969C9.21816 11.3245 9.13004 11.6867 9.12793 12.0544L9.2379 14.1201C9.27798 14.4853 9.40329 14.836 9.60377 15.1439C9.80429 15.4518 10.0743 15.7083 10.3921 15.8926L12.2241 16.8087C12.56 16.9577 12.9262 17.0254 13.2931 17.0063C13.66 16.9872 14.0171 16.8818 14.3356 16.6988L16.0715 15.572C16.368 15.3533 16.6092 15.0684 16.7762 14.74C16.9432 14.4116 17.0313 14.0488 17.0334 13.6804L16.9234 11.6193C16.8814 11.2588 16.7566 10.9129 16.5588 10.6085C16.3609 10.3042 16.0954 10.0498 15.783 9.86509Z" fill="#34D399"/>
<path d="M21.4352 18.5768L19.6032 17.6608C19.2666 17.5117 18.8996 17.444 18.532 17.4631C18.1644 17.4822 17.8064 17.5876 17.4871 17.7707L15.7558 18.8975C15.4589 19.1147 15.2172 19.3987 15.0502 19.7264C14.8831 20.0542 14.7954 20.4166 14.7939 20.7845L14.9039 22.8502C14.9478 23.2095 15.0739 23.5539 15.2725 23.8565C15.471 24.1592 15.7368 24.4119 16.049 24.5952L17.8811 25.5113C18.2182 25.6585 18.5852 25.7249 18.9526 25.705C19.3201 25.6851 19.6777 25.5796 19.9971 25.3968L21.733 24.27C22.0295 24.0528 22.2707 23.7687 22.437 23.4408C22.6033 23.113 22.6901 22.7506 22.6903 22.383L22.594 20.354C22.5545 19.9874 22.429 19.6354 22.2276 19.3265C22.0262 19.0177 21.7547 18.7608 21.4352 18.5768Z" fill="#34D399"/>
<path d="M7.93749 13.4468L7.85047 11.8392C7.85258 11.4714 7.94066 11.1093 8.1077 10.7817C8.27469 10.454 8.51597 10.1699 8.81231 9.95214L12.1879 7.75822C12.5064 7.57547 12.8634 7.4699 13.2301 7.45002C13.5968 7.43014 13.963 7.49651 14.2994 7.64371L15.7376 8.37655C16.0742 8.52559 16.4411 8.59333 16.8087 8.57423C17.1764 8.55513 17.5343 8.44974 17.8536 8.26662L19.585 7.13531C19.8821 6.9183 20.124 6.63442 20.291 6.30657C20.4581 5.97876 20.5457 5.61624 20.5468 5.24827L20.4369 3.18717C20.3975 2.82117 20.2724 2.46955 20.0719 2.16084C19.8714 1.85209 19.601 1.59491 19.2827 1.41005L17.4506 0.471113C17.1134 0.323859 16.7464 0.257492 16.379 0.27737C16.0115 0.297248 15.6539 0.402822 15.3345 0.585618L13.5666 1.69403C13.27 1.91131 13.0288 2.19538 12.8625 2.52323C12.6962 2.85108 12.6094 3.21347 12.6093 3.58107L12.6917 5.18872C12.6916 5.55638 12.6048 5.91876 12.4385 6.24661C12.2722 6.57447 12.031 6.85853 11.7345 7.07577L8.35887 9.26969C8.03954 9.4528 7.6816 9.55819 7.31399 9.57729C6.94634 9.59639 6.57942 9.52865 6.24282 9.37961L4.80922 8.65136C4.47262 8.50232 4.1057 8.43463 3.73804 8.45372C3.37044 8.47282 3.01249 8.57817 2.69316 8.76128L0.961842 9.88802C0.66445 10.1048 0.422387 10.3886 0.255255 10.7165C0.0881234 11.0444 0.000687031 11.4071 0 11.7751L0.109924 13.8407C0.148947 14.2069 0.27385 14.5586 0.474371 14.8674C0.674938 15.1762 0.945491 15.4333 1.26414 15.6179L3.09622 16.5339C3.43341 16.6812 3.80038 16.7476 4.1678 16.7277C4.53523 16.7078 4.89294 16.6022 5.21227 16.4194L6.94359 15.2927C7.24112 15.0832 7.48575 14.8074 7.65829 14.487C7.83078 14.1667 7.92636 13.8106 7.93749 13.4468Z" fill="#34D399"/>
<path d="M26.0709 11.8986C26.0301 11.533 25.9045 11.182 25.7041 10.8735C25.5037 10.5649 25.2341 10.3074 24.9167 10.1215L23.0846 9.20548C22.7473 9.05855 22.3804 8.99236 22.013 9.01224C21.6456 9.03212 21.288 9.13751 20.9685 9.31998L19.2372 10.4467C18.9403 10.664 18.6987 10.9479 18.5316 11.2757C18.3646 11.6034 18.2768 11.9659 18.2754 12.3338L18.3624 13.946C18.361 14.3138 18.2732 14.6763 18.1062 15.004C17.9391 15.3318 17.6974 15.6158 17.4005 15.833L14.0295 18.0224C13.7102 18.2052 13.3525 18.3107 12.9851 18.3306C12.6176 18.3505 12.2507 18.2841 11.9134 18.1369L10.4753 17.404C10.1388 17.2568 9.7726 17.1904 9.40591 17.2103C9.03922 17.2302 8.68233 17.3358 8.36378 17.5186L6.61414 18.6407C6.31785 18.8585 6.07656 19.1425 5.90952 19.4702C5.74253 19.7978 5.65445 20.16 5.65234 20.5277L5.76222 22.5934C5.80234 22.9586 5.92766 23.3093 6.12814 23.6172C6.32866 23.9251 6.59866 24.1816 6.91648 24.366L8.74856 25.3049C9.08434 25.4539 9.45053 25.5216 9.8174 25.5025C10.1843 25.4834 10.5415 25.378 10.86 25.1949L12.5959 24.0682C12.892 23.8502 13.1331 23.5661 13.3 23.2385C13.467 22.9109 13.5553 22.5489 13.5578 22.1812L13.4708 20.5689C13.4718 20.201 13.5594 19.8385 13.7265 19.5107C13.8936 19.1828 14.1354 18.8989 14.4326 18.6819L17.8036 16.488C18.1229 16.3049 18.4809 16.1995 18.8485 16.1804C19.2161 16.1613 19.583 16.229 19.9196 16.378L21.3532 17.1063C21.6898 17.2554 22.0568 17.3231 22.4244 17.304C22.792 17.2849 23.15 17.1795 23.4693 16.9964L25.2052 15.8697C25.5015 15.6521 25.7425 15.368 25.9088 15.0402C26.0751 14.7124 26.162 14.3501 26.1625 13.9826L26.0709 11.8986Z" fill="#34D399"/>
<path d="M32.2207 3.64169H39.087L42.3074 16.6754L45.5279 3.64169H52.698L46.1659 24.5443H38.4186L32.2207 3.64169Z" fill="#18181B"/>
<path d="M59.4389 24.7873C57.7375 24.7873 56.4109 24.2405 55.4589 23.1467C54.5069 22.053 54.031 20.5643 54.031 18.6806V9.32306H60.4719V18.4072C60.4719 18.873 60.5934 19.2376 60.8365 19.5009C61.0998 19.744 61.434 19.8655 61.8391 19.8655C62.2441 19.8655 62.6594 19.744 63.0847 19.5009L63.4189 23.724C62.9733 24.0683 62.3859 24.3316 61.6568 24.5139C60.9479 24.6962 60.2086 24.7873 59.4389 24.7873ZM57.2514 7.04444C56.2995 7.04444 55.4893 6.75075 54.8209 6.16337C54.1727 5.55573 53.8487 4.81645 53.8487 3.9455C53.8487 3.07456 54.193 2.3454 54.8816 1.75802C55.5703 1.17064 56.3602 0.876953 57.2514 0.876953C58.1831 0.876953 58.9832 1.18077 59.6516 1.7884C60.3402 2.39604 60.6846 3.11507 60.6846 3.9455C60.6846 4.8367 60.3402 5.57599 59.6516 6.16337C58.9629 6.75075 58.1629 7.04444 57.2514 7.04444Z" fill="#18181B"/>
<path d="M65.1882 9.53574H71.5987V12.6347C72.0646 11.4397 72.6924 10.5586 73.4824 9.99146C74.2925 9.40408 75.2344 9.11039 76.3079 9.11039L77.1889 14.0626C75.2648 14.0626 73.8469 14.2753 72.9355 14.7006C72.0443 15.1057 71.5987 15.7539 71.5987 16.6451V24.5443H65.1882V9.53574Z" fill="#18181B"/>
<path d="M86.7376 24.7873C85.0362 24.7873 83.5171 24.4531 82.1803 23.7848C80.8638 23.1164 79.8308 22.1948 79.0814 21.02C78.3522 19.825 77.9876 18.4578 77.9876 16.9185C77.9876 15.3791 78.3623 14.0221 79.1118 12.8473C79.8612 11.6523 80.8942 10.7307 82.2107 10.0826C83.5475 9.43446 85.0666 9.11039 86.7679 9.11039C88.4896 9.11039 90.0087 9.44459 91.3252 10.113C92.662 10.7611 93.695 11.6726 94.4241 12.8473C95.1533 14.0221 95.5179 15.3791 95.5179 16.9185C95.5179 18.4781 95.1432 19.8554 94.3937 21.0504C93.6646 22.2252 92.6316 23.1467 91.2948 23.8151C89.9783 24.4633 88.4592 24.7873 86.7376 24.7873ZM86.7983 20.2301C87.6288 20.2301 88.3073 19.9263 88.8339 19.3186C89.3808 18.6908 89.6542 17.8907 89.6542 16.9185C89.6542 15.9463 89.3808 15.1563 88.8339 14.5487C88.3073 13.9208 87.6288 13.6069 86.7983 13.6069C85.9679 13.6069 85.2792 13.9208 84.7324 14.5487C84.2058 15.1563 83.9425 15.9463 83.9425 16.9185C83.9425 17.8907 84.2058 18.6908 84.7324 19.3186C85.2792 19.9263 85.9679 20.2301 86.7983 20.2301Z" fill="#18181B"/>
<path d="M106.393 31.5017C105.279 31.5017 104.216 31.3903 103.203 31.1675L103.689 26.671C104.479 26.7925 105.208 26.8533 105.877 26.8533C107.132 26.8533 108.084 26.4786 108.732 25.7292C109.381 25 109.765 23.7645 109.887 22.0226C108.692 23.7037 106.869 24.5443 104.418 24.5443C103.081 24.5443 101.846 24.2 100.712 23.5113C99.5977 22.8227 98.7065 21.891 98.0381 20.7162C97.39 19.5414 97.0659 18.2553 97.0659 16.8577C97.0659 15.4399 97.39 14.1436 98.0381 12.9689C98.6863 11.7739 99.5673 10.832 100.681 10.1434C101.816 9.45472 103.051 9.11039 104.388 9.11039C105.623 9.11039 106.697 9.43446 107.608 10.0826C108.54 10.7105 109.148 11.5612 109.431 12.6347V9.11039H115.842V20.6858C115.842 24.2304 115.032 26.9141 113.411 28.737C111.811 30.5801 109.472 31.5017 106.393 31.5017ZM106.393 19.987C107.203 19.987 107.902 19.7035 108.489 19.1364C109.077 18.549 109.391 17.8603 109.431 17.0704V16.8273C109.391 16.0577 109.067 15.3791 108.459 14.7918C107.872 14.2044 107.183 13.9107 106.393 13.9107C105.563 13.9107 104.854 14.2145 104.266 14.8222C103.679 15.4095 103.385 16.1184 103.385 16.9489C103.385 17.7793 103.679 18.4983 104.266 19.106C104.854 19.6934 105.563 19.987 106.393 19.987Z" fill="#18181B"/>
<path d="M125.634 24.7873C124.318 24.7873 123.082 24.443 121.928 23.7544C120.793 23.0455 119.882 22.0935 119.193 20.8985C118.505 19.6832 118.16 18.3363 118.16 16.8577C118.16 15.3994 118.505 14.0829 119.193 12.9081C119.882 11.7131 120.804 10.7814 121.958 10.113C123.113 9.44459 124.338 9.11039 125.634 9.11039C126.687 9.11039 127.66 9.40408 128.551 9.99146C129.462 10.5788 130.151 11.4599 130.617 12.6347V9.11039H136.997V24.5443H130.617V21.7188C129.604 23.7645 127.943 24.7873 125.634 24.7873ZM127.609 19.987C128.419 19.987 129.108 19.7035 129.675 19.1364C130.262 18.549 130.576 17.8603 130.617 17.0704V16.8273C130.576 16.0172 130.252 15.3285 129.645 14.7614C129.057 14.1943 128.379 13.9107 127.609 13.9107C126.758 13.9107 126.029 14.2145 125.422 14.8222C124.834 15.4095 124.54 16.1184 124.54 16.9489C124.54 17.7996 124.844 18.5186 125.452 19.106C126.06 19.6934 126.779 19.987 127.609 19.987Z" fill="#18181B"/>
<path d="M140.074 9.53574H146.181V12.6347C147.356 10.2852 149.219 9.11039 151.771 9.11039C153.716 9.11039 155.235 9.80917 156.328 11.2067C157.442 12.584 157.999 14.4981 157.999 16.9489V24.5443H151.619V16.3109C151.619 15.4399 151.427 14.7715 151.042 14.3057C150.677 13.8398 150.161 13.6069 149.493 13.6069C149.007 13.6069 148.531 13.7689 148.065 14.093C147.599 14.3968 147.214 14.8424 146.91 15.4298C146.627 16.0172 146.485 16.6856 146.485 17.435V24.5443H140.074V9.53574Z" fill="#18181B"/>
</svg>
