<svg width="165" height="37" viewBox="0 0 165 37" fill="none" xmlns="http://www.w3.org/2000/svg">
<path d="M31.6372 13.8939L31.6151 13.8718C31.6133 13.8705 31.6118 13.8689 31.6109 13.867L17.7758 0.0314941L3.94085 13.8666C3.93926 13.8682 3.93837 13.8703 3.93676 13.8714L3.91393 13.8935C1.79837 16.021 0.454625 18.7945 0.0963089 21.7734C-0.262007 24.7522 0.38567 27.7653 1.93637 30.3338C3.48708 32.9023 5.85183 34.8788 8.6547 35.9489C11.4576 37.0189 14.5377 37.1215 17.4055 36.2399C17.6468 36.1661 17.9047 36.1661 18.1461 36.2399C21.0136 37.1211 24.0936 37.0186 26.8963 35.9483C29.699 34.8781 32.0634 32.9018 33.614 30.3335C35.1647 27.7652 35.8124 24.7522 35.4542 21.7735C35.0961 18.7949 33.7525 16.0213 31.6372 13.8939ZM8.86039 23.0172C8.79304 23.0846 8.73963 23.1646 8.70321 23.2525C8.66676 23.3404 8.64801 23.4347 8.64802 23.5299C8.67264 25.9718 9.36273 28.3606 10.644 30.4394C10.6731 30.4866 10.6866 30.5418 10.6824 30.597C10.6783 30.6522 10.6568 30.7047 10.621 30.747C10.5852 30.7894 10.537 30.8192 10.4832 30.8324C10.4294 30.8456 10.3728 30.8415 10.3215 30.8206C9.35823 30.4155 8.48317 29.8265 7.74524 29.0867C6.23298 27.5742 5.3828 25.5232 5.38143 23.3843C5.38005 21.2455 6.2276 19.1934 7.73794 17.679L17.7758 7.64207L27.8132 17.679C29.3238 19.1932 30.1716 21.2453 30.1702 23.3843C30.169 25.5232 29.3186 27.5742 27.8063 29.0867C27.0683 29.8265 26.1933 30.4155 25.2302 30.8206C25.1788 30.8415 25.1222 30.8456 25.0684 30.8324C25.0146 30.8192 24.9664 30.7892 24.9305 30.747C24.8948 30.7047 24.8731 30.6522 24.869 30.5968C24.8649 30.5416 24.8783 30.4864 24.9074 30.4392C26.189 28.3606 26.8795 25.9718 26.9045 23.5299C26.9045 23.4347 26.8855 23.3404 26.8489 23.2523C26.8123 23.1643 26.7587 23.0844 26.6912 23.0171L21.9434 17.9812C21.8961 17.9417 21.8366 17.9201 21.775 17.9201C21.7135 17.9201 21.6539 17.9417 21.6067 17.9812C21.5594 18.0205 21.5276 18.0753 21.5165 18.1359C21.5054 18.1964 21.5159 18.2588 21.5463 18.3124C23.3902 21.6492 21.8046 26.4421 19.1604 29.0867L19.1465 29.1007C18.7815 29.4617 18.2888 29.6641 17.7755 29.6639C17.2621 29.6637 16.7695 29.461 16.4048 29.0998L16.392 29.0867C13.7468 26.4421 12.162 21.6497 14.0062 18.3131C14.0365 18.2595 14.0471 18.1971 14.036 18.1366C14.025 18.076 13.9931 18.0212 13.9459 17.9819C13.8986 17.9424 13.839 17.9208 13.7775 17.9208C13.7159 17.9208 13.6563 17.9424 13.6091 17.9819L8.86039 23.0172Z" fill="url(#paint0_linear_226_917)"/>
<path d="M65.6736 11.5863H70.2526L65.503 27.4561H60.27L58.0516 18.0707L55.8048 27.4561H50.5718L45.8223 11.5863H50.6856L53.1599 22.7349L55.6058 11.5863H60.7535L63.1993 22.7349L65.6736 11.5863Z" fill="#18181B"/>
<path d="M82.1466 22.4221C82.8482 21.7395 83.1989 20.7726 83.1989 19.5212C83.1989 18.2698 82.8482 17.3123 82.1466 16.6487C81.4451 15.9661 80.6393 15.6249 79.7292 15.6249C78.8191 15.6249 78.0133 15.9661 77.3118 16.6487C76.6102 17.3313 76.2595 18.2983 76.2595 19.5496C76.2595 20.801 76.6102 21.768 77.3118 22.4505C78.0133 23.1142 78.8191 23.446 79.7292 23.446C80.6393 23.446 81.4451 23.1047 82.1466 22.4221ZM73.4154 25.3799C72.0124 23.8631 71.3108 21.9197 71.3108 19.5496C71.3108 17.1796 72.0124 15.2362 73.4154 13.7193C74.8185 12.1836 76.5249 11.4157 78.5347 11.4157C80.5634 11.4157 82.1182 12.1646 83.1989 13.6625V11.5863H88.0622V27.4561H83.1989V25.1524C82.0234 26.8209 80.4497 27.6551 78.4778 27.6551C76.506 27.6551 74.8185 26.8967 73.4154 25.3799Z" fill="#18181B"/>
<path d="M90.3159 11.5863H95.4921L99.104 23.3891L102.716 11.5863H107.892L102.261 27.4561H95.9471L90.3159 11.5863Z" fill="#18181B"/>
<path d="M116.879 27.6551C114.565 27.6551 112.669 26.9157 111.19 25.4368C109.712 23.9389 108.972 21.9576 108.972 19.4927C108.972 17.0279 109.702 15.0655 111.162 13.6056C112.641 12.1456 114.546 11.4157 116.879 11.4157C119.211 11.4157 121.145 12.1362 122.68 13.5771C124.216 15.0181 124.984 17.0184 124.984 19.5781C124.984 20.1279 124.946 20.6398 124.87 21.1138H113.949C114.044 21.8154 114.357 22.3937 114.888 22.8487C115.419 23.2848 115.987 23.5028 116.594 23.5028C117.22 23.5028 117.684 23.446 117.988 23.3322C118.291 23.1995 118.509 23.0762 118.642 22.9625C118.794 22.8298 118.983 22.6212 119.211 22.3368H124.472C124.017 23.9294 123.107 25.2187 121.742 26.2047C120.377 27.1716 118.756 27.6551 116.879 27.6551ZM119.922 18.0707C119.846 17.3313 119.524 16.734 118.955 16.279C118.386 15.805 117.713 15.568 116.935 15.568C116.158 15.568 115.504 15.805 114.973 16.279C114.442 16.734 114.11 17.3313 113.978 18.0707H119.922Z" fill="#18181B"/>
<path d="M132.971 11.5863V14.5441C134.109 12.4585 135.626 11.4157 137.522 11.4157V16.3643H136.327C135.208 16.3643 134.365 16.6297 133.796 17.1606C133.246 17.6915 132.971 18.6206 132.971 19.9478V27.4561H128.108V11.5863H132.971Z" fill="#18181B"/>
<path d="M144.598 9.79458C144.049 10.3444 143.375 10.6193 142.579 10.6193C141.783 10.6193 141.11 10.3444 140.56 9.79458C140.01 9.24473 139.735 8.57164 139.735 7.77531C139.735 6.96002 140.01 6.27745 140.56 5.7276C141.11 5.17776 141.783 4.90283 142.579 4.90283C143.375 4.90283 144.049 5.17776 144.598 5.7276C145.148 6.27745 145.423 6.96002 145.423 7.77531C145.423 8.57164 145.148 9.24473 144.598 9.79458ZM140.162 27.4561V11.5863H145.025V27.4561H140.162Z" fill="#18181B"/>
<path d="M158.827 22.479C159.471 21.7964 159.794 20.8105 159.794 19.5212C159.794 18.2319 159.462 17.2554 158.798 16.5918C158.135 15.9093 157.348 15.568 156.438 15.568C155.528 15.568 154.741 15.9093 154.077 16.5918C153.433 17.2554 153.11 18.2319 153.11 19.5212C153.11 20.8105 153.442 21.7964 154.106 22.479C154.788 23.1616 155.585 23.5028 156.495 23.5028C157.405 23.5028 158.182 23.1616 158.827 22.479ZM150.551 25.4083C148.958 23.9105 148.162 21.9386 148.162 19.4927C148.162 17.0469 148.958 15.094 150.551 13.634C152.143 12.1551 154.115 11.4157 156.466 11.4157C158.817 11.4157 160.78 12.1551 162.353 13.634C163.946 15.094 164.742 17.0469 164.742 19.4927C164.742 21.9386 163.956 23.9105 162.382 25.4083C160.808 26.9062 158.846 27.6551 156.495 27.6551C154.144 27.6551 152.162 26.9062 150.551 25.4083Z" fill="#18181B"/>
<defs>
<linearGradient id="paint0_linear_226_917" x1="17.7752" y1="0.0314941" x2="17.7752" y2="36.8337" gradientUnits="userSpaceOnUse">
<stop stop-color="#F0B645"/>
<stop offset="1" stop-color="#D694FF"/>
</linearGradient>
</defs>
</svg>
