<svg width="141" height="32" viewBox="0 0 141 32" fill="none" xmlns="http://www.w3.org/2000/svg">
<path d="M27.6973 11.7107L27.6786 11.692C27.6771 11.691 27.6759 11.6896 27.6752 11.688L15.9943 0.00683594L4.31355 11.6877C4.31221 11.689 4.31146 11.6909 4.3101 11.6917L4.29082 11.7104C2.50468 13.5066 1.37016 15.8483 1.06764 18.3633C0.765118 20.8783 1.31195 23.4223 2.62119 25.5908C3.93044 27.7594 5.92697 29.4281 8.29342 30.3316C10.6598 31.235 13.2604 31.3216 15.6816 30.5772C15.8854 30.515 16.1031 30.515 16.3069 30.5772C18.7279 31.3213 21.3283 31.2347 23.6946 30.3311C26.0609 29.4275 28.0572 27.7589 29.3664 25.5905C30.6755 23.4221 31.2224 20.8783 30.92 18.3634C30.6176 15.8486 29.4833 13.5069 27.6973 11.7107ZM8.46708 19.4135C8.41022 19.4703 8.36512 19.5379 8.33437 19.6121C8.3036 19.6863 8.28776 19.766 8.28778 19.8464C8.30856 21.908 8.8912 23.9248 9.97297 25.68C9.99754 25.7198 10.0089 25.7664 10.0054 25.813C10.0019 25.8596 9.98379 25.9039 9.95356 25.9397C9.92335 25.9754 9.88261 26.0006 9.83719 26.0118C9.79176 26.0229 9.74396 26.0195 9.70064 26.0018C8.8874 25.6597 8.14859 25.1625 7.52557 24.5379C6.24877 23.2609 5.53098 21.5293 5.52982 19.7234C5.52866 17.9176 6.24423 16.1851 7.5194 14.9065L15.9943 6.43237L24.4688 14.9065C25.7442 16.1849 26.46 17.9175 26.4588 19.7234C26.4577 21.5293 25.7398 23.2609 24.4629 24.5379C23.8398 25.1625 23.1011 25.6597 22.288 26.0018C22.2446 26.0195 22.1967 26.0229 22.1514 26.0118C22.106 26.0006 22.0652 25.9753 22.0349 25.9397C22.0047 25.9039 21.9865 25.8596 21.983 25.8128C21.9796 25.7662 21.9909 25.7196 22.0155 25.6798C23.0975 23.9248 23.6804 21.908 23.7015 19.8464C23.7015 19.766 23.6855 19.6863 23.6546 19.612C23.6237 19.5376 23.5785 19.4702 23.5214 19.4133L19.513 15.1616C19.473 15.1282 19.4228 15.11 19.3707 15.11C19.3189 15.11 19.2685 15.1282 19.2287 15.1616C19.1887 15.1948 19.1619 15.2411 19.1525 15.2922C19.1431 15.3433 19.152 15.396 19.1777 15.4412C20.7345 18.2585 19.3958 22.3051 17.1633 24.5379L17.1515 24.5497C16.8434 24.8545 16.4274 25.0254 15.994 25.0252C15.5605 25.0251 15.1447 24.8539 14.8368 24.5489L14.8259 24.5379C12.5926 22.3051 11.2546 18.2589 12.8116 15.4418C12.8372 15.3966 12.8462 15.3439 12.8368 15.2928C12.8275 15.2417 12.8006 15.1954 12.7607 15.1622C12.7208 15.1288 12.6705 15.1106 12.6185 15.1106C12.5666 15.1106 12.5163 15.1288 12.4764 15.1622L8.46708 19.4135Z" fill="#FF675E"/>
<path d="M56.4342 9.76244H60.3001L56.2901 23.1611H51.8719L49.999 15.2372L48.102 23.1611H43.6838L39.6738 9.76244H43.7799L45.8689 19.1751L47.9339 9.76244H52.2801L54.3451 19.1751L56.4342 9.76244Z" fill="#18181B"/>
<path d="M70.3422 18.911C70.9345 18.3347 71.2306 17.5183 71.2306 16.4618C71.2306 15.4052 70.9345 14.5968 70.3422 14.0366C69.7499 13.4603 69.0695 13.1721 68.3011 13.1721C67.5328 13.1721 66.8524 13.4603 66.2601 14.0366C65.6678 14.6129 65.3717 15.4293 65.3717 16.4858C65.3717 17.5423 65.6678 18.3587 66.2601 18.935C66.8524 19.4953 67.5328 19.7754 68.3011 19.7754C69.0695 19.7754 69.7499 19.4873 70.3422 18.911ZM62.9705 21.4082C61.7859 20.1276 61.1936 18.4868 61.1936 16.4858C61.1936 14.4848 61.7859 12.844 62.9705 11.5633C64.1551 10.2667 65.5958 9.61837 67.2926 9.61837C69.0055 9.61837 70.3181 10.2507 71.2306 11.5153V9.76244H75.3366V23.1611H71.2306V21.2161C70.2381 22.6248 68.9094 23.3292 67.2446 23.3292C65.5798 23.3292 64.1551 22.6889 62.9705 21.4082Z" fill="#18181B"/>
<path d="M77.2394 9.76244H81.6096L84.6591 19.7274L87.7086 9.76244H92.0788L87.3244 23.1611H81.9938L77.2394 9.76244Z" fill="#18181B"/>
<path d="M99.666 23.3292C97.713 23.3292 96.1122 22.7049 94.8636 21.4563C93.615 20.1916 92.9907 18.5188 92.9907 16.4378C92.9907 14.3567 93.607 12.6999 94.8396 11.4673C96.0882 10.2347 97.697 9.61837 99.666 9.61837C101.635 9.61837 103.268 10.2267 104.564 11.4433C105.861 12.6599 106.509 14.3487 106.509 16.5098C106.509 16.974 106.477 17.4062 106.413 17.8064H97.1928C97.2728 18.3987 97.5369 18.887 97.9852 19.2712C98.4334 19.6394 98.9136 19.8234 99.4259 19.8234C99.9542 19.8234 100.346 19.7754 100.602 19.6794C100.859 19.5673 101.043 19.4633 101.155 19.3672C101.283 19.2552 101.443 19.0791 101.635 18.839H106.077C105.693 20.1836 104.925 21.2722 103.772 22.1046C102.619 22.921 101.251 23.3292 99.666 23.3292ZM102.235 15.2372C102.171 14.6129 101.899 14.1086 101.419 13.7244C100.939 13.3242 100.37 13.1241 99.714 13.1241C99.0577 13.1241 98.5054 13.3242 98.0572 13.7244C97.609 14.1086 97.3288 14.6129 97.2168 15.2372H102.235Z" fill="#18181B"/>
<path d="M113.253 9.76244V12.2597C114.213 10.4988 115.494 9.61837 117.095 9.61837V13.7964H116.086C115.142 13.7964 114.429 14.0206 113.949 14.4688C113.485 14.917 113.253 15.7014 113.253 16.822V23.1611H109.147V9.76244H113.253Z" fill="#18181B"/>
<path d="M123.07 8.24968C122.605 8.71392 122.037 8.94603 121.365 8.94603C120.692 8.94603 120.124 8.71392 119.66 8.24968C119.196 7.78545 118.964 7.21717 118.964 6.54484C118.964 5.85649 119.196 5.28021 119.66 4.81598C120.124 4.35174 120.692 4.11963 121.365 4.11963C122.037 4.11963 122.605 4.35174 123.07 4.81598C123.534 5.28021 123.766 5.85649 123.766 6.54484C123.766 7.21717 123.534 7.78545 123.07 8.24968ZM119.324 23.1611V9.76244H123.43V23.1611H119.324Z" fill="#18181B"/>
<path d="M135.083 18.959C135.627 18.3827 135.899 17.5503 135.899 16.4618C135.899 15.3732 135.619 14.5488 135.059 13.9885C134.498 13.4123 133.834 13.1241 133.066 13.1241C132.297 13.1241 131.633 13.4123 131.073 13.9885C130.528 14.5488 130.256 15.3732 130.256 16.4618C130.256 17.5503 130.536 18.3827 131.097 18.959C131.673 19.5353 132.345 19.8234 133.114 19.8234C133.882 19.8234 134.538 19.5353 135.083 18.959ZM128.095 21.4322C126.75 20.1676 126.078 18.5028 126.078 16.4378C126.078 14.3727 126.75 12.7239 128.095 11.4913C129.44 10.2427 131.105 9.61837 133.09 9.61837C135.075 9.61837 136.731 10.2427 138.06 11.4913C139.405 12.7239 140.077 14.3727 140.077 16.4378C140.077 18.5028 139.413 20.1676 138.084 21.4322C136.755 22.6969 135.099 23.3292 133.114 23.3292C131.129 23.3292 129.456 22.6969 128.095 21.4322Z" fill="#18181B"/>
</svg>
